<svg xmlns="http://www.w3.org/2000/svg" width="360" height="144" viewBox="0 0 360 144">
  <defs>
    <style>
      .cls-1 {
        fill: #fff5ec;
        fill-rule: evenodd;
      }
    </style>
  </defs>
  <path id="DLKA" class="cls-1" d="M42.95,108.75h31.8c24,0,35.3-13.7,35.3-36.9s-11.3-36.9-35.3-36.9H42.95v73.8Zm19.6-6.5v-60.8h8.9c11.7,0,17.8,4.6,17.8,30.4,0,25.7-6.1,30.4-17.8,30.4h-8.9Zm57.7,6.5h50.7v-6.5h-30.6v-67.3h-20.1v73.8Zm101.6,0h21.7l-26.9-47.5,23.9-26.3h-9.4l-33.6,37.1v-37.1h-19.6v73.8h19.6v-26.3l5.8-6.5Zm23.3,0h7.4l7-19.9h29l7.3,19.9h20.8l-27.3-73.8h-17.7Zm28.8-60.4,12.3,34.1h-24.4Z"/>
</svg>
