<svg xmlns="http://www.w3.org/2000/svg" width="150.004" height="150.004" viewBox="0 0 182 182">
  <defs>
    <style>
      .cls-1 {
        fill: #c80004;
      }

      .cls-1, .cls-2 {
        stroke: #c80004;
      }

      .cls-1, .cls-2, .cls-3 {
        stroke-linecap: round;
        stroke-linejoin: round;
        fill-rule: evenodd;
      }

      .cls-1, .cls-3 {
        stroke-width: 3px;
      }

      .cls-2 {
        fill: none;
        stroke-width: 12px;
      }

      .cls-3 {
        fill: #ff1022;
        stroke: #ff1022;
      }
    </style>
  </defs>
  <g id="Artboard_1" data-name="Artboard 1">
    <path class="cls-1" d="M69,101a41.607,41.607,0,0,0,3,24c4.39,9.58,10.306,13.89,14,15,5.447,1.636,12.213.614,13-2,0.975-3.235-9-8.07-13-16a30.9,30.9,0,0,1-3-16" transform="translate(-33 -52)"/>
    <path class="cls-1" d="M181,101a41.606,41.606,0,0,1-3,24c-4.39,9.58-10.306,13.89-14,15-5.447,1.636-12.213.614-13-2-0.975-3.235,9-8.07,13-16a30.9,30.9,0,0,0,3-16" transform="translate(-33 -52)"/>
    <path class="cls-2" d="M56,165c6.5-7.318,14.121-12.633,23-15,18.088-4.821,30.545,6.955,47,7,15.536,0.042,28.249-10.923,46-6,8.045,2.231,15.011,6.815,21,13" transform="translate(-33 -52)"/>
    <path class="cls-2" d="M63,193a24.84,24.84,0,0,1,30-23c12.95,5.623,25.24,7.641,37,6,4.561-.636,25.47-10.3,39-6a25.928,25.928,0,0,1,14,10,24.445,24.445,0,0,1,4,13" transform="translate(-33 -52)"/>
    <path class="cls-2" d="M80,211c-0.746-7.172.623-14.444,5-20,8.063-10.234,25.451-13.518,42-5,14.1-7.754,29.834-5.267,38,4,5.053,5.734,6.763,13.524,6,21" transform="translate(-33 -52)"/>
    <path class="cls-3" d="M90,133a316,316,0,0,1,71,0,12,12,0,0,1,12,12v14a32,32,0,0,1-32,32H110a32,32,0,0,1-32-32V145A12,12,0,0,1,90,133Z" transform="translate(-33 -52)"/>
    <circle cx="77" cy="76" r="4"/>
    <circle id="Ellipse_1_copy" data-name="Ellipse 1 copy" cx="108" cy="76" r="4"/>
    <path class="cls-3" d="M91,70c-1.1-1.9-9.075-.329-15,4-3.552,2.595-11.383,9.885-10,21,0.7,5.618,4.2,14.245,13,17,9.418,2.949,17.413-3.524,20-6,8.515-8.148,8.264-20.631,7-21-0.745-.217-2.145,4.474-6,8-5.2,4.753-13.605,7.939-17,5-3.539-3.064-.98-12.228,2-18C86.82,76.475,91.841,71.452,91,70Z" transform="translate(-33 -52)"/>
    <path class="cls-3" d="M160,70c1.1-1.9,9.075-.329,15,4,3.552,2.595,11.383,9.885,10,21-0.7,5.618-4.2,14.245-13,17-9.418,2.949-17.413-3.524-20-6-8.515-8.148-8.264-20.631-7-21,0.745-.217,2.145,4.474,6,8,5.2,4.753,13.6,7.939,17,5,3.539-3.064.98-12.228-2-18C164.18,76.475,159.159,71.452,160,70Z" transform="translate(-33 -52)"/>
  </g>
</svg>
