<svg xmlns="http://www.w3.org/2000/svg" width="150.004" height="150.004" viewBox="0 0 182 182">
  <defs>
    <style>
      .cls-1, .cls-4 {
        fill: #ada7ae;
      }

      .cls-1 {
        stroke: #ada7ae;
      }

      .cls-1, .cls-2, .cls-3 {
        stroke-linecap: round;
        stroke-width: 3px;
      }

      .cls-1, .cls-2, .cls-3, .cls-6 {
        stroke-linejoin: round;
      }

      .cls-1, .cls-2, .cls-3, .cls-4, .cls-5, .cls-6 {
        fill-rule: evenodd;
      }

      .cls-2 {
        fill: #ffa95f;
        stroke: #ffa95f;
      }

      .cls-3 {
        fill: #c8c5c9;
        stroke: #c8c5c9;
      }

      .cls-5 {
        fill: #ffc269;
      }

      .cls-6 {
        fill: none;
        stroke: #9b959d;
        stroke-linecap: square;
        stroke-width: 5px;
      }
    </style>
  </defs>
  <g id="Artboard_1" data-name="Artboard 1">
    <path class="cls-1" d="M146,122c0.764-2.329-1.59-8.432-6-16-5.464-9.377-9.624-14.213-13-14-4.635.292-6.966,8.873-12,13-3.644,2.988-11.69,4.558-13,9-1.472,4.989,3.716,11.039,8,14C121.889,136.215,142.879,131.513,146,122Z" transform="translate(-33 -52)"/>
    <path class="cls-2" d="M137,175c0.147,2.557-4.622,4.99-10,10-5.477,5.1-8.254,9.116-12,9-6.01-.186-8.758-9.291-17-21-3.745-5.321-6.83-8.26-6-10C95.267,156.15,136.42,164.936,137,175Z" transform="translate(-33 -52)"/>
    <path class="cls-3" d="M44,112a84.894,84.894,0,0,1,9,41,84.563,84.563,0,0,1-8,33,36.6,36.6,0,0,0,14-6c8.235-5.911,12.3-19,20-20,6.123-.8,10.9,5.434,16,10,8.582,7.677,23.946,13.735,49,13,25.788-.757,49.084-13.95,66-33a88.1,88.1,0,0,0-58-34c-23.558-3.126-41.277.2-53,10-7.294,6.1-11.465,13.7-18,13-7.257-.774-12.264-13.638-19-19A41.189,41.189,0,0,0,44,112Z" transform="translate(-33 -52)"/>
    <path class="cls-4" d="M211,151a102.551,102.551,0,0,1-31,24,27.536,27.536,0,0,1,2-49A62.454,62.454,0,0,1,211,151Z" transform="translate(-33 -52)"/>
    <path class="cls-5" d="M46,187c-2.031-1.9,3.763-13.035,5-19a55.48,55.48,0,0,0,1-15H169a20.483,20.483,0,0,0,4,12c3.026,3.869,8.964,5.5,9,8,0.068,4.8-18.592,8.682-26,10-17.017,3.028-33.056,2.068-40,0-10.134-3.017-18.824-8.074-22-11-5.419-4.992-8.139-10.09-13-10-6.376.118-13.225,13.233-19,18C55.762,185.15,48.063,188.928,46,187Z" transform="translate(-33 -52)"/>
    <path class="cls-6" d="M180,127c-7.27,4.148-11.929,12.918-12,22.5-0.07,9.387,4.273,18.1,11.25,22.5" transform="translate(-33 -52)"/>
    <circle cx="151" cy="92" r="5"/>
  </g>
</svg>
