<svg xmlns="http://www.w3.org/2000/svg" width="150.004" height="150.004" viewBox="0 0 182 182">
  <defs>
    <style>
      .cls-1 {
        fill: #ffc999;
        stroke: #ffc999;
      }

      .cls-1, .cls-2 {
        stroke-linecap: round;
        stroke-linejoin: round;
        stroke-width: 3px;
        fill-rule: evenodd;
      }

      .cls-2 {
        fill: #ffc183;
        stroke: #ffc183;
      }
    </style>
  </defs>
  <g id="Artboard_1" data-name="Artboard 1">
    <path class="cls-1" d="M146,82c-0.157-2.076,1.332-5.936,6-10,3.684-3.207,10.7-7.42,14-5,2.138,1.567.752,9.548,1,12a24.584,24.584,0,0,1-1,10,5.683,5.683,0,0,1-2,3C159.223,95.314,146.571,89.537,146,82Z" transform="translate(-33 -52)"/>
    <path class="cls-2" d="M124,105c-1.652-7.192,5.885-16.163,14-20,4.123-1.95,14.243-5.3,23,1,9.541,6.858,11.2,21.361,6,28C158.2,125.231,126.9,117.626,124,105Z" transform="translate(-33 -52)"/>
    <path class="cls-1" d="M93,144c-2.742-17.435,19.469-40.013,44-43,7.022-.855,26.818-1.62,38,13,12.385,16.192,6.426,41.618-7,53C144.876,186.6,96.632,167.092,93,144Z" transform="translate(-33 -52)"/>
    <path class="cls-2" d="M60,216c-7.9-3.134-5.01-29.62,2-48,3.867-10.14,8.671-16.936,15-22a43.773,43.773,0,0,1,10-6,42.2,42.2,0,0,0,6,1c14.6,1.366,24.305-6.072,35-7a48.792,48.792,0,0,1,32,9c5.861,4.2,19.684,16.213,19,34-0.592,15.389-12.222,26.207-19,31-5.008,3.541-18.806,8.951-36,9-13.271.038-24.813-2.118-38-4-5.881-.839-9.972-1.2-15,0C68.376,213.627,62.8,217.112,60,216Z" transform="translate(-33 -52)"/>
  </g>
</svg>
