<svg id="Brown" xmlns="http://www.w3.org/2000/svg" width="892" height="433" viewBox="0 0 892 433">
  <defs>
    <style>
      .cls-1 {
        fill: #403226;
        stroke: #403226;
      }

      .cls-1, .cls-2, .cls-3, .cls-4, .cls-5, .cls-6 {
        stroke-linecap: round;
        stroke-linejoin: round;
        stroke-width: 1px;
        fill-rule: evenodd;
      }

      .cls-2 {
        fill: #141414;
        stroke: #141414;
      }

      .cls-3, .cls-4 {
        fill: #fff5ec;
      }

      .cls-3 {
        stroke: #fff;
      }

      .cls-4 {
        stroke: #fff5ec;
      }

      .cls-5 {
        fill: #84ffff;
        stroke: #84ffff;
      }

      .cls-6 {
        fill: #50e6f7;
        stroke: #50e6f7;
      }
    </style>
  </defs>
  <path class="cls-1" d="M560,264c3.4,2.228.4,15.677-7,25-5.478,6.9-14.163,12.145-26.584,14.652-4.33.873-14.519,1.009-24.416-.652-8.655-1.452-14.784-4.083-18-7-6.214-5.637-9.6-14.491-8-22,0.841-3.951,2.883-6.284,4-7a9.083,9.083,0,0,1,7-1l70-2A3.384,3.384,0,0,1,560,264Z"/>
  <path class="cls-1" d="M472,272a26.926,26.926,0,0,0,19,33l-78-1Z"/>
  <path class="cls-1" d="M622,253c0.823,1.006.54,3.247-1,7a27.012,27.012,0,0,1-9,11c-10.712,7.607-22.551,14.671-29,17-18.037,6.513-29.975,11.945-31,10-0.887-1.683,8.62-7.336,13-17a36.587,36.587,0,0,0,3-11,11.7,11.7,0,0,1,2-6,12.043,12.043,0,0,1,8-5l39-7C618.883,251.654,620.98,251.754,622,253Z"/>
  <path class="cls-1" d="M321,216a304.582,304.582,0,0,0-45-5c-7.372-.267-14.623-0.267-22,0,3.555,17.352,12.929,27.525,22,28a15.026,15.026,0,0,0,8-2c7-4.037,13.968-8.017,21-12C310.334,221.979,315.648,218.99,321,216Z"/>
  <path class="cls-1" d="M245,207a61.927,61.927,0,0,0,26,37c-3.923,4.24-8.31,6.791-13,7a16.06,16.06,0,0,1-6-1c-14.965-5.583-49.161-21.172-63-32-9.654-7.553-18.937-15.512-28-24a463.255,463.255,0,0,1,51,6C223.144,201.943,234.022,204.25,245,207Z"/>
  <path class="cls-1" d="M151,192a131.471,131.471,0,0,0,32,27A368.958,368.958,0,0,0,83,190Z"/>
  <path class="cls-2" d="M368,186c0.34,0.627-26.824,15.947-34,20q-7.6-1.626-15-4c-10.906-3.5-21.289-8.142-21-9,0.2-.59,7.6,1.417,13,2,6.28,0.678,14.37-.166,23-1,9.275-.9,17.256-1.688,24-4C362.806,188.352,367.869,185.758,368,186Z"/>
  <path class="cls-2" d="M316,207c0.053-.451-8.742-1.022-17-6a42.245,42.245,0,0,1-12-11,244.319,244.319,0,0,1-26-2,244.678,244.678,0,0,1-41-9,80.323,80.323,0,0,0,18,16,77.1,77.1,0,0,0,16,8c1,0.358,1.987.686,3,1,13.6,0.085,26.862.745,40,2C304.136,206.682,315.937,207.538,316,207Z"/>
  <path class="cls-2" d="M210,175c0.78,1,1.525,1.978,2.268,2.984,3.985,5.395,6.489,10.332,10.732,14.016,6.1,5.295,13.079,6.765,13,7-0.146.436-14.927-4.613-29-7a150.528,150.528,0,0,0-31-2q-1.549-.928-3-2c-9.01-6.652-14.836-17.119-13-19,0.74-.758,2.725-0.123,5,1,6.708,0.063,13.32.394,20,1,7.4,0.671,14.694,1.667,22,3Z"/>
  <path class="cls-2" d="M154,169a29.237,29.237,0,0,0,10,18c-2.018-.386-3.987-0.714-6-1-31.687-4.5-71.217,2.579-93-1-2.384-.392-4.907-0.993-5-2-0.24-2.588,15.72-6.131,25-8,20.736-4.177,42.005-5.909,65-6C151.331,169,152.66,169,154,169Z"/>
  <path class="cls-2" d="M523,10c6.012,3.239,9.928,7.2,11,12,1.336,5.986-1.806,17.6-2,20a5.127,5.127,0,0,0,1,4c1.3,1.389,3.648,1.5,6,1a91.312,91.312,0,0,1,37,2,71.055,71.055,0,0,1,32-15A116.979,116.979,0,0,0,523,10Z"/>
  <path class="cls-2" d="M321,140c-10-6.966,3.751-45.678,19-72,15.983-27.587,36.508-44.951,49-52,10.878-6.138,28.319-12.509,50-15,33.195-3.813,81.032.836,87,21,0.422,1.426.19,7.776,0,13-0.167,4.58-.546,8.333-3,12-4.609,6.888-13.319,8.45-16,9-14.254,2.923-44.434,23.578-74,38-9.28,4.527-20.6,9.53-27,13-18.268,9.9-47.294,20.823-73,32C330.508,140.083,324.7,142.58,321,140Z"/>
  <path class="cls-2" d="M381,14a212.007,212.007,0,0,0-29,26,201.009,201.009,0,0,0-34,51,103.663,103.663,0,0,0-8,27c-1.3,7.894-1.106,14.894,0,17a5.989,5.989,0,0,1,1,4c-0.644,3.363-5.513,5.516-12,7-23.936,5.475-87.265,6.759-108,9-2.672.289-5.295,0.617-8,1a336.654,336.654,0,0,1,48-61,342.328,342.328,0,0,1,54-44c25.04-16.581,50.3-27.741,67-32A186.756,186.756,0,0,1,381,14Z"/>
  <path class="cls-2" d="M227,88a510.507,510.507,0,0,0-94,76l42-8Z"/>
  <path class="cls-2" d="M774,81a66.545,66.545,0,0,0,0-30c-4.489-18.875-10.948-26.852-18-28-8.188-1.333-17.416,5.568-21,14-3.462,8.145-.743,17.29,3,24C745.073,73.679,759.506,80.107,774,81Z"/>
  <path class="cls-3" d="M179,226c-14.392-5.693-30.193-11.481-46-17-9.856-3.441-23.767-7.827-41-7-23.649,1.134-38.27,8.884-45,16-8.969,9.482-7.122,17.521-17,27-5.306,5.092-13.308,9.561-21,15-3.582,2.533-9.6,7.01-9,12,0.265,2.2,1.835,4.536,6,7,9.221,5.453,26.024,7.577,48,0,16.708-5.76,26.177-12.89,41-22,13.153-8.083,25.761-14.606,37-19A199.282,199.282,0,0,1,179,226Z"/>
  <path class="cls-3" d="M720,251a366.974,366.974,0,0,1,41,3c10.1,1.375,18.21,3.254,27,8a68.168,68.168,0,0,1,16,12,256.085,256.085,0,0,1-34,38,213.519,213.519,0,0,1-47,33,125.478,125.478,0,0,1-43,13c-16.534,1.819-31.249,1.441-34-5-2.475-5.8,7.5-16.026,25-33,12.159-11.792,22.381-21.872,32-36A153.12,153.12,0,0,0,720,251Z"/>
  <path class="cls-3" d="M140,421a44.323,44.323,0,0,0,2-16,43.384,43.384,0,0,0-1-7c-6.7-.191-12.3,1.258-16,5-4.186,4.233-3.768,10.5-6,15-2.315,4.667-9.223,10.294-8,13,1.037,2.3,5.877,2.406,10,2a25.2,25.2,0,0,0,15-7A25.71,25.71,0,0,0,140,421Z"/>
  <path class="cls-3" d="M161,358q-4,11-8,22c-6.552,5.893-16.431,14.41-18,13-0.508-.456-0.052-1.868,1-4C140.6,379.682,152.251,366.837,161,358Z"/>
  <path class="cls-3" d="M176,374a40.028,40.028,0,0,1,10,25c-6.148,3.624-12.054,7.232-18,11-10.607,6.722-17.663,11.478-21,9-3.787-2.812-.588-13.347,2-20,4.216-10.838,10.693-17.187,15-20A35.863,35.863,0,0,1,176,374Z"/>
  <path class="cls-3" d="M239,364a195.96,195.96,0,0,1-46,30,39.5,39.5,0,0,1-9-25c9.972-13.1,20.011-25.521,30-37,7.132-8.2,16.519-18.237,21-16,3.263,1.628,2.392,9,2,16A140.237,140.237,0,0,0,239,364Z"/>
  <path class="cls-3" d="M300,340a177.073,177.073,0,0,0-17-46,92.854,92.854,0,0,0-35,15,137.649,137.649,0,0,0-4,47,4.839,4.839,0,0,0,2,3c1.822,1.114,4.149.3,5,0,11.991-4.181,21.7-6.276,33-12A156.7,156.7,0,0,1,300,340Z"/>
  <path class="cls-3" d="M306,334c4.753,3.533,11.273,1.441,22-3,7.8-3.23,16.527-6.7,25-10a9.013,9.013,0,0,0,5-5,8.242,8.242,0,0,0,0-5c-2.416-8.966-14.973-19.55-20-26a12.921,12.921,0,0,0-5-4c-3.669-1.487-7.189-.465-9,0-1.3.333-10.64,1.47-15,2a41.845,41.845,0,0,0-14,4c-2.936,1.541-5.12,3.363-6,6-1.1,3.307.315,6.466,1,8,3.962,8.87,7.952,17.577,12,26A11.291,11.291,0,0,0,306,334Z"/>
  <path class="cls-3" d="M424,269c1.62,7.774.892,15.2-3,21-3.336,4.97-7.759,7-12,9-9.8,4.627-20.376,8.545-31,13-2.428,1.018-7.7,3.305-12,1-3.4-1.826-4.585-5.694-5-7a82.085,82.085,0,0,0-7-16c-6.094-9.769-20.238-13.041-20-19,0.131-3.282,4.421-4.991,11-9,4.276-2.605,15.355-10.273,24-15a25.933,25.933,0,0,1,9-3,25.347,25.347,0,0,1,10,1C398.742,248.055,413.874,259.705,424,269Z"/>
  <path class="cls-3" d="M432,285c2.026-.632,3.993-1.288,6-2,19.46-6.9,30.973-16.931,49-27,8.809-4.92,18.9-10.037,18-14-0.739-3.256-9.975-3.553-16-8a28.84,28.84,0,0,1-10-13c-1.454-4.1-2.129-9.952-3-16-0.305-2.121-.608-3.825-2-5-3.856-3.253-11.094,1.831-22,6-14.963,5.72-25.056,4.869-30,14a20.17,20.17,0,0,0-2,6c-2.292,12.393,3.431,24.5,9,37a44.438,44.438,0,0,1,3,10A39.128,39.128,0,0,1,432,285Z"/>
  <path class="cls-3" d="M483,199c-1.181,1.9-.55,4.666,0,9,1.007,7.926,1.961,13.243,5,17,1.426,1.762,7.369,5.374,14,8,3.218,1.274,5.833,1.606,9,3a10.091,10.091,0,0,0,4,1c3.424,0.038,6.358-2.4,11-7,2.909-2.886,4.487-5.981,7-8a4.712,4.712,0,0,0,2-3c0.175-1.776-1.283-3.216-2-4-1.682-1.839-2.343-4.342-4-7-3.145-5.046-7.209-9.047-9-10-4.774-2.541-9.381-2.16-12-2C494.531,196.821,485.976,194.2,483,199Z"/>
  <path class="cls-3" d="M528,167c-4.2-1.124-6.651-.14-11,0-6.041.195-15.4-3.418-17-1-1.377,2.079,2.915,5.938,3,11,0.018,1.037-.926,4.379,0,7a10.54,10.54,0,0,0,6,6c3.389,1.363,6.4.479,9,0,4.416-.814,8.061.191,13,0,9.63-.372,15.14-1.641,16-4,0.7-1.931-2.01-6.208-8-12C534.866,170,531.277,167.876,528,167Z"/>
  <path class="cls-3" d="M631,256a37.8,37.8,0,0,1,8-13c4.008-4.214,8.259-5.946,10-6,3.8-.118,6.623,2.112,10,5,2.732,2.337,5.419,4.684,8,7Z"/>
  <path class="cls-3" d="M673,248l-15-15a54.265,54.265,0,0,0,7-8c1.341-1.891,2.523-3.788,5-5,3.117-1.526,7.835-1.374,15,2,9.958,4.689,19.924,13.315,28,22Z"/>
  <path class="cls-3" d="M721,244l31,1a68.615,68.615,0,0,0-11-19c-8.647-10.519-16.737-14.38-21-14-3.391.3-6.48,2.6-11,6-2.434,1.83-5.328,4-8,6Z"/>
  <path class="cls-3" d="M755,232c-1.159,1.466-.6,3.608,0,6q1.092,4.329,2,9a128.721,128.721,0,0,1,14,2q6.077,1.212,12,3a82.259,82.259,0,0,0-1-16c-0.651-3.835-1.609-6.919-4-8-3.037-1.373-7.713,2.386-11,3C763.229,231.705,756.887,229.614,755,232Z"/>
  <path class="cls-3" d="M787,252V241c4.713-1.289,10.043-1.158,13,2,2.274,2.429,2.273,5.728,2,10-0.24,3.745-.567,7.358-1,11Z"/>
  <path class="cls-3" d="M806,271c1.452,0.141,3.024-3.908,4-7-0.537-2.021-1.626-4.977-3-5-1.557-.026-3.109,3.721-3,7C804.069,268.09,804.831,270.887,806,271Z"/>
  <path class="cls-3" d="M750,34c-0.006-1.066.723-2.511,3-4a5.585,5.585,0,0,1,3-1,6.064,6.064,0,0,1,3,2,6.667,6.667,0,0,1,2,4c-0.108,1.033-.992,1.717-2,3-0.827,1.053-1.231,1.808-2,2-1.021.255-2.192-.412-4-2C751.075,36.309,750,34.789,750,34Z"/>
  <path class="cls-3" d="M851,156c0.454,0.432,4.678-2.214,8-7,2.41-3.472,4.5-9.062,5-17a63.774,63.774,0,0,0-2-20,55.589,55.589,0,0,1-10,3,56.556,56.556,0,0,1-14,1,130.737,130.737,0,0,1-17-2c-12.86-2.7-25.814-4.254-34-4a98.44,98.44,0,0,0-29,5c-5.218,1.782-8.812,4.132-14,6-9.874,3.555-23.343,6.18-36,8-4.133.594-12.826,1.787-16,8a10.948,10.948,0,0,0,0,10c2.959,5.228,10.755,6,19,6,10.6,0,22.938-.924,28-2,15.892-3.379,33.186-7.608,39-11a80.227,80.227,0,0,1,14-7c12.4-4.376,22.094-4.788,30-3,3.949,0.893,9.239,3.363,15,4a43.432,43.432,0,0,0,15-1c-2.042,4.821-2.4,8.813-1,12,0.779,1.773,1.89,2.851,2,5C853.163,153.18,850.621,155.639,851,156Z"/>
  <path class="cls-3" d="M865,143c-0.319-.2,2.5-4.212,4-10a43.667,43.667,0,0,0,0-21q-0.5-4-1-8c1.727-3.672,3.371-7.287,5-11,2.2-5.016,5.48-12.256,6-14,1.464-4.91,1.992-8.642,4-9,2.693-.48,6.542,5.373,8,11,2.488,9.6-2.112,18.383-4,22C882.176,112.24,865.926,143.584,865,143Z"/>
  <path class="cls-3" d="M732,118c2.634,3.427,22.1-10.267,42-13,14.691-2.018,29.244,1.7,45,2,4.164,0.078,7.839-.192,12,0,14.4,0.664,22.89,3.33,30-2,4.309-3.23,8.484-16.027,9-17,2.435-4.589,3.436-8.482,6-13,1.04-1.834,3.508-6.076,2-8-0.894-1.141-2.689-.826-5-1a19.442,19.442,0,0,1-7-2c-5.29-2.571-6.508-6.309-11-9a27.989,27.989,0,0,0-10-3c-8.192-.985-13.338.767-16,3-3.619,3.036-5.821,10.672-6,11-1.269,2.323-7.018,7.726-14,12a72.3,72.3,0,0,1-27,10,71.032,71.032,0,0,1-21,0,41.732,41.732,0,0,1-14,13c-3.3,1.812-8.2,3.887-12,9C733.617,111.861,730.673,116.273,732,118Z"/>
  <path class="cls-3" d="M816,17c5.853,3.543,10.121,8.247,12,14,0.954,2.92,1,5.978,1,10,0,2.67,0,5.495,0,8a60.977,60.977,0,0,1,10-2,64.267,64.267,0,0,1,14,0,100.567,100.567,0,0,1,11,2,96.781,96.781,0,0,0,18,2A106.1,106.1,0,0,0,816,17Z"/>
  <path class="cls-3" d="M880,59c0.26-1.027-1.418-2.465-3-3-2.037-.689-4.71-0.144-5,1-0.26,1.027,1.418,2.465,3,3C877.037,60.689,879.71,60.144,880,59Z"/>
  <path class="cls-3" d="M887,60c0.538-.325,2.318,1.141,3,3,0.452,1.232.493,2.811,0,3-0.52.2-1.522-1.193-2-2C887.1,62.486,886.461,60.326,887,60Z"/>
  <path class="cls-3" d="M805,12c0.252-.382-3.969-4.327-10-7a37.452,37.452,0,0,0-17-3c-18.846.8-35.267,12.53-35,13,0.2,0.352,10.043-6.333,25-9,11.2-2,19.4-1.136,26,1C800.035,8.954,804.766,12.356,805,12Z"/>
  <path class="cls-4" d="M729,51q0.5,10,1,20L713,86l-3,1a10.336,10.336,0,0,1-2.836-2.065c-1.67-1.729-2.9-4.885-3.164-9.935-0.3-5.76,1.111-10.73,2-12a14.433,14.433,0,0,1,7-5C716.784,56.484,723.556,53.411,729,51Z"/>
  <path class="cls-4" d="M725,107c-0.867.473-2.872,1.592-5,1-4.306-1.2-7.164-8.906-5-14,1.009-2.376,2.686-3.186,5-5,4.427-3.471,7-10.521,14-13a18.091,18.091,0,0,1,5-1,30.905,30.905,0,0,0,7,4c1.006,0.409,9.108,1.79,10,4,1.092,2.7-2.75,7.138-10,13C739.016,101.647,728.673,105,725,107Z"/>
  <path class="cls-3" d="M669,70a38.993,38.993,0,0,0-1,7c-0.253,5.1.593,8.254-1,13-1.347,4.015-3.622,6.251-5,7-3.754,2.041-8.215.889-11-1-3.3-2.238-5.528-6.292-5-10,0.666-4.674,5.47-7.233,13-11Z"/>
  <path class="cls-4" d="M620,91c0.457,0.579.165,1.9-1,4-2.4,4.328-4.743,6.143-6,6-2.691-.306-5.067-4.369-4-7,0.508-1.252,3.1-1.967,7-3C617.49,90.605,619.337,90.16,620,91Z"/>
  <path class="cls-4" d="M598,106c-1.008-.315-2.6.842-5,3-2.077,1.869-3.209,3.083-3,4,0.339,1.482,3,2.232,5,2,1.879-.218,4.439-1.468,5-4C600.439,109.019,599.584,106.5,598,106Z"/>
  <path class="cls-4" d="M572,128a31.578,31.578,0,0,1-11,0c-2.521-.455-9-1.983-9-4,0-1.454,3.375-2.563,5-3a12.834,12.834,0,0,1,10,1A11.99,11.99,0,0,1,572,128Z"/>
  <path class="cls-4" d="M519,118c-0.406,1.408,3.816,3.956,7,5a12.906,12.906,0,0,0,9,0c2.015-.812,4.12-1.935,4-3C538.654,116.916,519.8,115.219,519,118Z"/>
  <path class="cls-4" d="M490,122a28.1,28.1,0,0,1,14-3,26.985,26.985,0,0,1,6,1,7.415,7.415,0,0,1-3,2c-2.173.746-4.585-.062-6,0-2.013.088-2.989,0.879-5,1A14.039,14.039,0,0,1,490,122Z"/>
  <path class="cls-3" d="M589,158"/>
  <path class="cls-5" d="M211,170a242.8,242.8,0,0,0-27-4c-7.659-.7-15.307-1.03-23-1a198.91,198.91,0,0,1,57-7Z"/>
  <path class="cls-5" d="M290,154a47.854,47.854,0,0,0-4,30c-9.747-1.569-19.291-3.214-29-5-13.478-2.479-26.6-5.1-40-8a18.954,18.954,0,0,1,3-7,24.071,24.071,0,0,1,5.386-5.172A10.56,10.56,0,0,1,229,157a10.055,10.055,0,0,1,5,0Z"/>
  <path class="cls-5" d="M297,153a72.567,72.567,0,0,0-4,33,288.379,288.379,0,0,0,36,1c14.551-.532,25.782-2.319,36-6a100.192,100.192,0,0,0,17-8,26.075,26.075,0,0,0,1-6c0.43-8.97-4.017-16.518-8-21a32.54,32.54,0,0,0-17-10,168.868,168.868,0,0,1-25,10A169.117,169.117,0,0,1,297,153Z"/>
  <path class="cls-5" d="M388,169a35.445,35.445,0,0,0-21-36,135.951,135.951,0,0,0,31-12c8.129-4.383,28.71-20.04,48-27,2-.724,3.975-1.38,6-2a46.862,46.862,0,0,1,3,5c2.844,5.5,8.4,18.674,3,27a16.457,16.457,0,0,1-8,6C437.764,134.751,408.1,154.981,388,169Z"/>
  <path class="cls-5" d="M572,55a195.216,195.216,0,0,0-46,3c-30.794,5.752-53.418,18.981-63,28-1.386,1.3-2.7,2.619-4,4,0.666,1.335,1.354,2.71,2,4,3.463,6.914,5.929,11.859,6,17a26.428,26.428,0,0,1-4,14,117.284,117.284,0,0,1,41-13c7.169-.859,15.033-1.391,19-1,6.592,0.65,12.974,2.305,20-1a24.961,24.961,0,0,0,10-9c7-10.568,3.21-21.367,8-32A38.791,38.791,0,0,1,572,55Z"/>
  <path class="cls-5" d="M557,112a63.738,63.738,0,0,0,24-6c8.929-4.256,11.56-9.842,20-15,8.012-4.9,16.259-7.957,20-17a22.551,22.551,0,0,0,1-3c-0.99-.7-1.975-1.356-3-2-11.587-7.281-25.135-10.822-40-11-9.753,11.488-15.021,22.168-15,32a41.632,41.632,0,0,1-1,10A33.265,33.265,0,0,1,557,112Z"/>
  <path class="cls-5" d="M633,71c-0.987-.15-1.537-1.191-2-2-0.178-.312-1.308-1.948-2-3-2.242-3.408-6.566-4.378-9-5-3.5-.895-22.5-6.081-34-9,8.929-5.664,19.907-12.008,25-14a13.289,13.289,0,0,1,6-1,12.762,12.762,0,0,1,4,1c4.83,2.034,11.937,5.588,15,8,6.5,5.119,13.3,9.987,17,14q2.654,2.882,5,6a10.906,10.906,0,0,1-5,1c-3-.147-4.588-1.681-7-2-3.169-.419-6.511,1-10,4C635.219,70.154,634.1,71.167,633,71Z"/>
  <path class="cls-6" d="M694,110c-0.059-3.107,4.826-6,9-6,6.383,0,12.194,6.789,11,10-1.034,2.782-7.454,3.21-12,2C700.284,115.543,694.067,113.533,694,110Z"/>
  <path class="cls-6" d="M679,140c-0.725-.725-3.949.374-4,2a2.172,2.172,0,0,0,2,2C678.626,143.949,679.725,140.725,679,140Z"/>
  <path class="cls-6" d="M672,118c-1.5,3.594.938,7.9,4,9,4.557,1.635,10.738-3.74,10-8-0.473-2.727-3.768-4.9-7-5C676.573,113.925,673.246,115.016,672,118Z"/>
  <path class="cls-6" d="M659,119c-2.859.071-5.8,5.423-5,10,0.878,5.008,6.158,9.193,10,8a6.244,6.244,0,0,0,4-5c0.381-2.658-1.219-4.467-4-8C661.68,121.053,660.352,118.966,659,119Z"/>
  <path class="cls-6" d="M671,98c-1.7.017-2.582,2.347-5,5-2.332,2.559-4.229,3.869-4,6a4.114,4.114,0,0,0,2,3c1.777,1.035,4.37.513,8-2,2.682-1.857,3.876-4.084,4-5C676.453,101.661,673.547,97.974,671,98Z"/>
  <path class="cls-6" d="M653,106c0.64,1.721-1.057,3.565-3,7a4.343,4.343,0,0,1-2,2c-1.97.853-4.225-.467-5-1-2.258-1.551-4.376-5-3-8,1.65-3.59,6.513-3.234,8-3C649.328,103.209,652.231,103.933,653,106Z"/>
  <path class="cls-6" d="M165,370c-2.849-2.375,5-16.5,12-28a48.64,48.64,0,0,1,21-14,46.251,46.251,0,0,1,9-2l-27,36C173.781,366.983,167.015,371.68,165,370Z"/>
  <path class="cls-6" d="M545,195q0.5,3.5,1,7c1.336,7.178-.35,12.053-3,13-1.262.451-3.755-.318-7-3a19.374,19.374,0,0,1-6-9,20.783,20.783,0,0,1-1-6,25.453,25.453,0,0,1,6-2A25.71,25.71,0,0,1,545,195Z"/>
  <path class="cls-6" d="M565,192a20.867,20.867,0,0,1-13,18,18.64,18.64,0,0,1,0-13,17.4,17.4,0,0,1,3-5h10Z"/>
  <path class="cls-6" d="M562,164c1.139,0.3,2.708,3.189,4,8,1.554,5.788,1.2,9.666,0,11-0.647.717-3.383,1.777-7,2-2.5.154-4.075-.244-5-1a8.9,8.9,0,0,1-2-5,19.326,19.326,0,0,1,0-5C555.38,166.851,559.381,163.318,562,164Z"/>
  <path class="cls-6" d="M512,130c0.335-1.094,6.23-.013,13,1,9.765,1.461,15.574,2.01,21,7a24.416,24.416,0,0,1,7,12c1.628,6.447.8,10.19-1,12-1.083,1.086-3.446,1.81-7,2a34.677,34.677,0,0,1-14-2c-3.729-1.652-6.453-3.976-7-5-2.715-5.086,1.872-10.332,0-16C521.644,133.868,511.563,131.427,512,130Z"/>
  <path class="cls-6" d="M439,146a68.076,68.076,0,0,1,26,3c5.209,1.708,11.932,5.131,19,7,2.793,0.739,9.511,1.4,15,2,4.662,0.514,9.122.881,13-2,3.553-2.64,6.033-7.6,5-12-0.74-3.148-4.786-7.324-14-10-10.248-2.977-20.2-.939-24,0C466.556,137.071,452.692,141.243,439,146Z"/>
  <path class="cls-6" d="M446,156c-6.284-.263-12.587-0.6-19-1-5.078,3.568-8.742,7.2-8,10,1.056,3.992,20.333,6.464,22,7,9,2.893,15.777,6.633,21,11,4.136,3.459,7.908,7.637,14,8,8.136,0.485,17.786-6.009,18-13,0.121-3.962-4.2-9.446-15-15C466.98,156.816,456.34,156.433,446,156Z"/>
  <path class="cls-6" d="M455,196c-0.6,3.332-7.29,3.259-16,7-9.769,4.2-14.579,9.121-21,7-4.352-1.438-4.43-4.455-9-6-5.009-1.693-9.745,1.5-13-1-3.185-2.444-1.877-15.03-2-16-0.488-3.84-1.311-6.011,0-8,2.473-3.751,9.285-3.094,19-2,11.1,1.251,19.047,2.211,27,6C445.9,185.81,455.833,191.371,455,196Z"/>
  <path class="cls-6" d="M388,183c1.1,0.885.843,4.807,1,10,0.117,3.9.2,6.363-1,9-2.335,5.122-7.019,5.794-13,10-4.644,3.266-6.553,6.41-11,7-4.622.613-7.423-1.842-13-4-2.531-.98-10.5-2.024-11-4-0.856-3.391,8.431-7.485,21-15C375.684,187.22,384.313,180.047,388,183Z"/>
  <path class="cls-6" d="M414,228c-0.737-6.163-1.037-9.985-4-14a14.474,14.474,0,0,0-6-5c-5.637-2.252-11.445.686-19,5-9.7,5.541-15.118,9.035-15,13,0.067,2.256,2.366,5.619,8,9,4.8,2.879,12.611,4.5,14,5,2.543,0.923,10.415,4.029,16,8,0.973,0.692,4.266,3.088,6,2,1.441-.9,1.126-3.778,1-5C414.385,240.024,414.764,234.387,414,228Z"/>
  <path class="cls-6" d="M325,269a131.4,131.4,0,0,1-15-15c-2.47-2.906-4.789-5.888-7-9a5.36,5.36,0,0,1,1-10,58.164,58.164,0,0,0,12-8c3.343-2.907,5.6-5.5,10-7,6.355-2.168,12.018-.305,19,2,12.9,4.257,20.447,6.365,22,12a9.906,9.906,0,0,1,0,5,82.981,82.981,0,0,1-16,13c-3.522,2.181-13.322,6.937-20,12Q327.865,266.377,325,269Z"/>
  <path class="cls-6" d="M294,246a6.311,6.311,0,0,0-10,1c-7.843,2.836-13.589,6.448-14,11-0.254,2.815,2,5.029,4,9a34.2,34.2,0,0,1,3,8,13.873,13.873,0,0,0,2,6,11.4,11.4,0,0,0,3,3,27.414,27.414,0,0,0,6-1c2.645-.75,4.475-1.912,7-3,2.328-1,7.374-2.135,12-3,4.175-.781,8.014-1.372,9-4,0.538-1.434.107-3.157-1-5Z"/>
  <path class="cls-6" d="M241,302c0.84,1.025,2.847.9,6,0,4.314-1.229,7.531-3.3,11-5,6.534-3.2,11.633-2.615,14-7a13.587,13.587,0,0,0,1-6c-0.076-3.457-1.821-10.769-7-18-0.865-1.208-2.1-2.724-4-3-1.129-.165-2.887.228-5,2-5.886,4.937-11.114,19.83-14,30C240.659,298.154,240.03,300.817,241,302Z"/>
  <path class="cls-6" d="M244,272a76.573,76.573,0,0,0-7,17c-1.511,5.536-2.2,10.357-6,16a36.354,36.354,0,0,1-14,12,7.385,7.385,0,0,1-5,2c-0.806,0-3.987-.115-5-2-1.374-2.557,2.146-6.493,5-11a49.474,49.474,0,0,0,6-14A96.6,96.6,0,0,1,244,272Z"/>
  <path class="cls-6" d="M208,300c0.3,0.267-1.924,3.7-3,6a54.781,54.781,0,0,0-3,8c-7.751,6.122-21.947,17.177-23,16C177.4,328.212,206.683,298.837,208,300Z"/>
  <path class="cls-6" d="M722,201c-5.137,3.2-10.067,6.491-15,10-4.106,2.921-8.046,5.876-12,9-3.008-1.051-5.963-2.036-9-3-3.344-1.061-6.624-2.045-10-3a147.858,147.858,0,0,1,12-9,23.4,23.4,0,0,1,9-4,26.173,26.173,0,0,1,8,0A65.347,65.347,0,0,0,722,201Z"/>
  <path class="cls-6" d="M805,242q3-1.749,5-1c3.448,1.3,5.2,8.379,3,19a13.084,13.084,0,0,1-5-6c-0.827-2.137-.624-3.74-1-6A20.945,20.945,0,0,0,805,242Z"/>
  <path class="cls-6" d="M792,237a29.96,29.96,0,0,0-4-5c-0.382-.384-4.509-3.391-6-6-2.348-4.106-1.385-8.347-1-12a41.82,41.82,0,0,0-1-14,243.256,243.256,0,0,1,20,20c5.2,5.883,9.817,11.943,8,15-0.633,1.065-3.092,1.728-7,2A65.294,65.294,0,0,1,792,237Z"/>
  <path class="cls-6" d="M775,204a23.148,23.148,0,0,0,0,9c0.439,2.1,1.308,4.684,0,7a7.3,7.3,0,0,1-4,3,31.026,31.026,0,0,1-8,2,31.9,31.9,0,0,1-11-1c-6.042-2.092-8.439-6.068-13-10a40.573,40.573,0,0,0-15-8l4-5,41-1a3.892,3.892,0,0,1,5,0A3.825,3.825,0,0,1,775,204Z"/>
  <path class="cls-6" d="M735,21c0.557,0.507-3.853,4.99-6,11-1.2,3.348-1.06,8.612-4,13-2.968,4.43-8.793,8.778-14.75,7.972A11.047,11.047,0,0,1,707,52c-0.1-1,.9-2,1-3,0.867-8.32,7.7-12.522,17-20C730.932,24.233,734.451,20.5,735,21Z"/>
  <path class="cls-6" d="M699,53a44.084,44.084,0,0,0-3,13,46.029,46.029,0,0,0,1,13c1.711,8.122,5.191,12.866,3,17s-8.349,5.734-13,5c-8.452-1.334-12.061-10.133-13-13-3.627-11.081,3.025-23.7,12-30A29.5,29.5,0,0,1,699,53Z"/>
</svg>
