<svg xmlns="http://www.w3.org/2000/svg" width="150.004" height="150.004" viewBox="0 0 182 182">
  <defs>
    <style>
      .cls-1, .cls-2, .cls-3 {
        fill: none;
        stroke-linecap: round;
        stroke-linejoin: round;
        fill-rule: evenodd;
      }

      .cls-1 {
        stroke: #2d9547;
      }

      .cls-1, .cls-2 {
        stroke-width: 15px;
      }

      .cls-2, .cls-3 {
        stroke: #85bb40;
      }

      .cls-3 {
        stroke-width: 10px;
      }
    </style>
  </defs>
  <g id="Artboard_1" data-name="Artboard 1">
    <path class="cls-1" d="M42,176c1.007,6.237,3.256,10.71,7,13,6.312,3.862,12.885-1.036,20,2,6.841,2.919,10.028,12.018,14,16,2.5,2.506,9.659,7.09,18,10,15.5,5.406,32.99,3.364,49-3,7.049-2.8,13.259-7.015,15-9,4.12-4.7,5.2-13.076,11-16,6.444-3.248,12.215,2.079,19-1,4.095-1.858,7.041-5.973,9-12" transform="translate(-33 -52)"/>
    <path class="cls-1" d="M71,82c4.588,2.722,7.646,6.031,9,10,2.9,8.5-4.421,15.623-1,23,3.139,6.771,11.335,5.212,15,12,4.261,7.891-3.416,15.164,0,24,3.256,8.42,12.282,8.233,15,17,1.96,6.321-1.878,12.617-2,19-0.208,10.88,2.671,16.871,7,20,7.405,5.352,20.028,3.295,24-3,2.477-3.925.184-9.4-1-18-0.9-6.51-.744-13,0-15,3.539-9.494,13.765-10.379,16-19,2.375-9.163-7.928-15.771-5-24,3.007-8.449,16.512-7.639,19-16,2.057-6.911-5.765-12.227-4-20,0.977-4.3,4.418-7.937,10-11" transform="translate(-33 -52)"/>
    <path class="cls-2" d="M41,131c0.275,4.46,1.575,7.821,4,10,5.454,4.9,12.9.517,18,5,6.05,5.318.4,15.766,6,23,5.728,7.4,15.046,3.478,21,11,5.208,6.579,1.18,13.474,6,21,1.629,2.544,8.9,7.847,19,11,11.29,3.524,21,2.437,24,1a24.7,24.7,0,0,0,11-11c4.353-8.525.052-15.707,5-22,5.963-7.584,16.325-3.459,22-11,5.426-7.21-.79-17.255,5-23,5.368-5.326,15.673-.509,20-6,1.782-2.261,2.054-5.631,1-10" transform="translate(-33 -52)"/>
    <path class="cls-2" d="M120,73c4.446,3.858,6.87,7.849,7,12,0.263,8.423-9.1,11.829-9,20,0.107,8.75,10.741,11.325,11,20,0.28,9.384-11.805,12.676-12,22-0.233,11.171,16.647,16.249,16,27-0.513,8.523-13.023,12.731-12,20,0.86,6.108,11,8.013,11,13,0,3.338-4.535,6.353-11,9" transform="translate(-33 -52)"/>
    <path class="cls-3" d="M113,224h31" transform="translate(-33 -52)"/>
  </g>
</svg>
