<svg id="Brown" xmlns="http://www.w3.org/2000/svg" width="512.008" height="247.968" viewBox="0 0 892 432">
  <defs>
    <style>
      .cls-1 {
        fill: #ffd79e;
        stroke: #ffd79e;
      }

      .cls-1, .cls-2, .cls-3, .cls-4, .cls-5, .cls-6, .cls-7, .cls-8, .cls-9 {
        stroke-linecap: round;
        stroke-linejoin: round;
        stroke-width: 1px;
        fill-rule: evenodd;
      }

      .cls-2 {
        fill: #ffe5bf;
        stroke: #ffe5bf;
      }

      .cls-3 {
        fill: #895100;
        stroke: #895100;
      }

      .cls-4 {
        fill: #141414;
        stroke: #141414;
      }

      .cls-5 {
        fill: #482e08;
        stroke: #482e08;
      }

      .cls-6 {
        fill: #fffcec;
        stroke: #fffcec;
      }

      .cls-7 {
        fill: #fff2dd;
        stroke: #fff2dd;
      }

      .cls-8 {
        fill: #fff5ec;
        stroke: #fff;
      }

      .cls-9 {
        fill: #c47300;
        stroke: #c47300;
      }
    </style>
  </defs>
  <path class="cls-1" d="M559.688,263.471c3.4,2.227.4,15.663-7,24.977-5.48,6.893-14.166,12.134-26.591,14.638-4.332.873-14.523,1.008-24.423-.651-8.657-1.451-14.789-4.079-18.005-6.994-6.216-5.632-9.6-14.478-8-21.979,0.841-3.947,2.884-6.278,4-6.994a9.1,9.1,0,0,1,7-1l70.019-2A3.389,3.389,0,0,1,559.688,263.471Z"/>
  <path class="cls-1" d="M471.664,271.464a26.9,26.9,0,0,0,19,32.969l-78.022-1Q442.155,287.448,471.664,271.464Z"/>
  <path class="cls-1" d="M621.705,252.481c0.824,1,.541,3.244-1,6.994a27.014,27.014,0,0,1-9,10.99c-10.715,7.6-22.558,14.657-29.008,16.984-18.042,6.507-29.984,11.934-31.009,9.99-0.887-1.681,8.622-7.329,13-16.984a36.5,36.5,0,0,0,3-10.99,11.693,11.693,0,0,1,2-5.994,12.048,12.048,0,0,1,8-5l39.011-6.994C618.588,251.136,620.685,251.237,621.705,252.481Z"/>
  <path class="cls-1" d="M320.621,215.516a305,305,0,0,0-45.012-5c-7.375-.267-14.627-0.267-22.006,0,3.555,17.336,12.933,27.5,22.006,27.974a15.052,15.052,0,0,0,8-2c7-4.032,13.972-8.009,21.006-11.988C309.953,221.489,315.268,218.5,320.621,215.516Z"/>
  <path class="cls-1" d="M244.6,206.524a61.873,61.873,0,0,0,26.007,36.966c-3.924,4.236-8.312,6.784-13,6.993a16.071,16.071,0,0,1-6-1c-14.969-5.578-49.175-21.152-63.018-31.97-9.656-7.546-18.943-15.5-28.008-23.977a463.753,463.753,0,0,1,51.015,5.994C222.738,201.472,233.619,203.777,244.6,206.524Z"/>
  <path class="cls-1" d="M150.574,191.539a131.5,131.5,0,0,0,32.009,26.974A369.4,369.4,0,0,0,82.555,189.54Z"/>
  <path class="cls-2" d="M367.634,185.544c0.34,0.627-26.831,15.932-34.009,19.981q-7.6-1.624-15-4c-10.909-3.493-21.295-8.135-21.006-8.991,0.2-.59,7.6,1.416,13,2,6.282,0.677,14.375-.166,23.007-1,9.277-.9,17.261-1.687,24.007-4C362.439,187.894,367.5,185.3,367.634,185.544Z"/>
  <path class="cls-2" d="M315.62,206.524c0.053-.45-8.744-1.021-17-5.994a42.221,42.221,0,0,1-12-10.99,244.708,244.708,0,0,1-26.008-2,245.056,245.056,0,0,1-41.011-8.991A80.335,80.335,0,0,0,237.6,194.536a77.119,77.119,0,0,0,16,7.992c1,0.358,1.987.686,3,1,13.6,0.085,26.87.745,40.012,2C303.752,206.206,315.557,207.062,315.62,206.524Z"/>
  <path class="cls-2" d="M209.59,174.554c0.78,1,1.526,1.977,2.269,2.982,3.986,5.39,6.49,10.322,10.735,14,6.1,5.289,13.082,6.758,13,6.993-0.146.436-14.931-4.609-29.008-6.993a150.744,150.744,0,0,0-31.008-2q-1.549-.927-3-2c-9.013-6.645-14.841-17.1-13-18.982,0.74-.757,2.726-0.123,5,1,6.71,0.063,13.323.393,20,1,7.4,0.671,14.7,1.665,22.006,3Z"/>
  <path class="cls-2" d="M153.574,168.56a29.209,29.209,0,0,0,10,17.983c-2.019-.385-3.988-0.713-6-1-31.7-4.493-71.237,2.577-93.026-1-2.384-.391-4.908-0.992-5-2-0.24-2.586,15.725-6.125,25.007-7.993,20.742-4.172,42.017-5.9,65.018-5.994C150.905,168.555,152.234,168.555,153.574,168.56Z"/>
  <path class="cls-3" d="M522.678,9.709c6.014,3.236,9.93,7.189,11,11.989,1.336,5.981-1.807,17.581-2,19.981a5.116,5.116,0,0,0,1,4c1.3,1.388,3.649,1.5,6,1a91.448,91.448,0,0,1,37.011,2A71.1,71.1,0,0,1,607.7,33.686,117.113,117.113,0,0,0,522.678,9.709Z"/>
  <path class="cls-3" d="M320.621,139.587c-10-6.959,3.752-45.636,19.006-71.933C355.614,40.093,376.145,22.745,388.64,15.7c10.881-6.132,28.327-12.5,50.014-14.986,33.2-3.81,81.055.836,87.025,20.98,0.422,1.424.19,7.769,0,12.988-0.167,4.576-.547,8.325-3,11.989-4.61,6.882-13.323,8.442-16,8.992-14.258,2.92-44.447,23.556-74.02,37.964-9.283,4.523-20.6,9.522-27.008,12.988-18.273,9.89-47.307,20.8-73.02,31.97C330.132,139.67,324.325,142.164,320.621,139.587Z"/>
  <path class="cls-3" d="M380.638,13.7A211.952,211.952,0,0,0,351.63,39.681a200.791,200.791,0,0,0-34.01,50.952,103.464,103.464,0,0,0-8,26.975c-1.3,7.886-1.106,14.879,0,16.984a5.972,5.972,0,0,1,1,4c-0.644,3.36-5.514,5.511-12,6.994-23.943,5.469-87.289,6.753-108.03,8.991-2.673.288-5.3,0.617-8,1A336.373,336.373,0,0,1,230.6,94.629,342.355,342.355,0,0,1,284.611,50.67c25.047-16.565,50.312-27.715,67.019-31.97A187.032,187.032,0,0,1,380.638,13.7Z"/>
  <path class="cls-3" d="M226.6,87.636a510.479,510.479,0,0,0-94.026,75.929l42.011-7.993Q200.589,121.6,226.6,87.636Z"/>
  <path class="cls-4" d="M773.748,80.642a66.394,66.394,0,0,0,0-29.972c-4.49-18.858-10.951-26.827-18-27.974-8.191-1.332-17.421,5.563-21.006,13.987-3.463,8.138-.743,17.274,3,23.978C744.813,73.328,759.25,79.75,773.748,80.642Z"/>
  <path class="cls-5" d="M178.581,225.507c-14.395-5.688-30.2-11.47-46.012-16.984-9.859-3.439-23.774-7.82-41.012-6.994-23.656,1.134-38.281,8.876-45.013,15.985-8.971,9.474-7.124,17.5-17,26.975-5.308,5.088-13.312,9.552-21.006,14.986-3.583,2.531-9.6,7-9,11.989,0.265,2.195,1.835,4.532,6,6.993,9.223,5.448,26.031,7.57,48.013,0,16.712-5.755,26.185-12.878,41.012-21.979a239.364,239.364,0,0,1,37.01-18.983A199.554,199.554,0,0,1,178.581,225.507Z"/>
  <path class="cls-2" d="M719.733,250.483a367.675,367.675,0,0,1,41.011,3c10.1,1.374,18.215,3.251,27.008,7.993a68.2,68.2,0,0,1,16,11.989,255.855,255.855,0,0,1-34.009,37.964A213.523,213.523,0,0,1,722.734,344.4a125.609,125.609,0,0,1-43.012,12.988c-16.539,1.817-31.258,1.44-34.01-5-2.476-5.79,7.5-16.011,25.007-32.969,12.162-11.781,22.387-21.852,32.009-35.967A152.894,152.894,0,0,0,719.733,250.483Z"/>
  <path class="cls-5" d="M139.571,420.324a44.242,44.242,0,0,0,2-15.985,43.315,43.315,0,0,0-1-6.993c-6.7-.191-12.3,1.257-16,5-4.187,4.23-3.768,10.49-6,14.986-2.316,4.663-9.226,10.284-8,12.988,1.038,2.294,5.879,2.4,10,2a25.225,25.225,0,0,0,15-6.993A25.723,25.723,0,0,0,139.571,420.324Z"/>
  <path class="cls-5" d="M160.576,357.383q-4,10.99-8,21.98c-6.554,5.887-16.435,14.4-18.005,12.988-0.508-.456-0.052-1.866,1-4C140.168,379.045,151.825,366.211,160.576,357.383Z"/>
  <path class="cls-5" d="M175.581,373.368a39.974,39.974,0,0,1,10,24.977c-6.15,3.621-12.057,7.225-18,10.99-10.609,6.715-17.668,11.467-21.006,8.991-3.787-2.809-.588-13.334,2-19.981,4.217-10.828,10.7-17.171,15-19.981A35.9,35.9,0,0,1,175.581,373.368Z"/>
  <path class="cls-5" d="M238.6,363.378a196.048,196.048,0,0,1-46.013,29.972,39.444,39.444,0,0,1-9-24.977c9.974-13.09,20.016-25.5,30.008-36.965,7.134-8.189,16.523-18.22,21.006-15.985,3.264,1.626,2.393,8.99,2,15.985A139.924,139.924,0,0,0,238.6,363.378Z"/>
  <path class="cls-5" d="M299.615,339.4a176.765,176.765,0,0,0-17-45.957,92.954,92.954,0,0,0-35.01,14.986,137.366,137.366,0,0,0-4,46.956,4.832,4.832,0,0,0,2,3c1.823,1.114,4.15.3,5,0,11.994-4.177,21.71-6.27,33.009-11.988A156.642,156.642,0,0,1,299.615,339.4Z"/>
  <path class="cls-5" d="M305.617,333.406c4.755,3.53,11.276,1.439,22.006-3,7.805-3.227,16.532-6.7,25.007-9.99a9.012,9.012,0,0,0,5-5,8.237,8.237,0,0,0,0-5c-2.417-8.958-14.977-19.532-20.006-25.975a12.909,12.909,0,0,0-5-4c-3.671-1.486-7.192-.464-9,0-1.3.333-10.643,1.468-15,2a41.915,41.915,0,0,0-14,4c-2.937,1.539-5.122,3.36-6,5.994-1.1,3.3.315,6.46,1,7.993,3.962,8.862,7.954,17.56,12,25.975A11.274,11.274,0,0,0,305.617,333.406Z"/>
  <path class="cls-5" d="M423.65,268.466c1.62,7.768.892,15.189-3,20.981-3.337,4.965-7.761,6.991-12,8.991-9.8,4.623-20.382,8.538-31.009,12.988-2.428,1.017-7.7,3.3-12,1-3.406-1.824-4.586-5.688-5-6.993a81.935,81.935,0,0,0-7-15.985c-6.095-9.76-20.243-13.029-20-18.982,0.131-3.279,4.422-4.987,11-8.992,4.277-2.6,15.36-10.264,24.007-14.986a25.967,25.967,0,0,1,9-3,25.4,25.4,0,0,1,10,1C398.385,247.541,413.521,259.18,423.65,268.466Z"/>
  <path class="cls-5" d="M431.652,284.452c2.027-.632,3.994-1.287,6-2,19.465-6.9,30.982-16.915,49.014-26.974,8.811-4.916,18.9-10.028,18-13.987-0.74-3.253-9.978-3.55-16-7.993a28.819,28.819,0,0,1-10-12.988c-1.454-4.094-2.129-9.942-3-15.985-0.306-2.118-.608-3.821-2-5-3.857-3.25-11.1,1.829-22.006,5.994-14.967,5.715-25.063,4.865-30.009,13.987a20.144,20.144,0,0,0-2,6c-2.293,12.381,3.432,24.472,9,36.965a44.274,44.274,0,0,1,3,9.991A39.026,39.026,0,0,1,431.652,284.452Z"/>
  <path class="cls-5" d="M482.667,198.532c-1.182,1.9-.551,4.661,0,8.991,1.006,7.919,1.961,13.231,5,16.985,1.426,1.76,7.371,5.369,14,7.992,3.219,1.273,5.834,1.6,9,3a10.1,10.1,0,0,0,4,1c3.425,0.038,6.359-2.392,11-6.993,2.91-2.883,4.489-5.975,7-7.993a4.7,4.7,0,0,0,2-3c0.175-1.774-1.283-3.213-2-4-1.683-1.837-2.344-4.338-4-6.994-3.146-5.04-7.211-9.038-9-9.99-4.776-2.539-9.384-2.158-12-2C494.2,196.355,485.643,193.739,482.667,198.532Z"/>
  <path class="cls-5" d="M527.679,166.562c-4.2-1.123-6.652-.14-11,0-6.043.194-15.4-3.415-17.005-1-1.377,2.076,2.916,5.933,3,10.99,0.018,1.036-.926,4.374,0,6.993a10.539,10.539,0,0,0,6,5.994c3.39,1.362,6.4.479,9,0,4.417-.813,8.064.191,13,0,9.633-.371,15.145-1.639,16-4,0.7-1.929-2.011-6.2-8-11.989C534.548,169.562,530.957,167.437,527.679,166.562Z"/>
  <path class="cls-5" d="M630.708,255.479a37.755,37.755,0,0,1,8-12.988c4.01-4.211,8.262-5.941,10-6,3.806-.118,6.625,2.11,10,5,2.733,2.335,5.42,4.68,8,6.993Z"/>
  <path class="cls-5" d="M672.72,247.486l-15-14.986a54.285,54.285,0,0,0,7-7.992c1.341-1.89,2.524-3.784,5-5,3.117-1.524,7.837-1.372,15,2,9.961,4.685,19.929,13.3,28.008,21.98Z"/>
  <path class="cls-5" d="M720.733,243.49l31.009,1a68.538,68.538,0,0,0-11-18.982C732.089,215,724,211.14,719.733,211.52c-3.392.3-6.482,2.6-11,5.994-2.435,1.828-5.33,4-8,5.995Q710.73,233.5,720.733,243.49Z"/>
  <path class="cls-5" d="M754.743,231.5c-1.16,1.465-.6,3.6,0,5.994q1.092,4.324,2,8.992a129,129,0,0,1,14,2q6.079,1.21,12,3a82.03,82.03,0,0,0-1-15.985c-0.651-3.832-1.61-6.912-4-7.992-3.038-1.372-7.715,2.383-11,3C762.974,231.206,756.63,229.117,754.743,231.5Z"/>
  <path class="cls-5" d="M786.752,251.482V240.493c4.714-1.288,10.046-1.157,13,2,2.276,2.427,2.274,5.722,2,9.99-0.24,3.742-.567,7.352-1,10.99Z"/>
  <path class="cls-5" d="M805.757,270.465c1.453,0.14,3.025-3.9,4-6.994-0.537-2.019-1.626-4.972-3-5-1.557-.026-3.109,3.718-3,6.993C803.826,267.557,804.588,270.351,805.757,270.465Z"/>
  <path class="cls-6" d="M749.741,33.686c-0.006-1.065.724-2.509,3-4a5.592,5.592,0,0,1,3-1,6.071,6.071,0,0,1,3,2,6.646,6.646,0,0,1,2,4c-0.108,1.032-.992,1.715-2,3-0.828,1.052-1.231,1.806-2,2-1.021.255-2.192-.411-4-2C750.816,35.993,749.746,34.474,749.741,33.686Z"/>
  <path class="cls-5" d="M850.77,155.572c0.454,0.432,4.679-2.212,8-6.993,2.41-3.469,4.506-9.053,5-16.984a63.632,63.632,0,0,0-2-19.982,55.719,55.719,0,0,1-10,3,56.68,56.68,0,0,1-14,1,130.846,130.846,0,0,1-17-2c-12.864-2.7-25.821-4.249-34.009-4a98.56,98.56,0,0,0-29.008,5c-5.22,1.78-8.815,4.128-14,5.994-9.877,3.551-23.35,6.174-36.01,7.992-4.135.594-12.83,1.785-16,7.993a10.926,10.926,0,0,0,0,9.991c2.96,5.223,10.759,6,19,5.994,10.607,0,22.945-.923,28.008-2,15.9-3.376,33.195-7.6,39.011-10.99a80.318,80.318,0,0,1,14-6.993c12.4-4.373,22.1-4.784,30.009-3,3.949,0.893,9.241,3.36,15,4a43.5,43.5,0,0,0,15-1c-2.043,4.816-2.4,8.8-1,11.988,0.779,1.771,1.89,2.849,2,5C852.933,152.754,850.39,155.212,850.77,155.572Z"/>
  <path class="cls-5" d="M864.774,142.584c-0.319-.2,2.5-4.208,4-9.99a43.59,43.59,0,0,0,0-20.981q-0.5-4-1-7.992c1.728-3.669,3.372-7.28,5-10.99,2.2-5.011,5.481-12.245,6-13.987,1.465-4.906,1.993-8.634,4-8.991,2.693-.48,6.543,5.368,8,10.99,2.489,9.593-2.112,18.366-4,21.98C881.954,111.853,865.7,143.168,864.774,142.584Z"/>
  <path class="cls-5" d="M731.736,117.608c2.635,3.423,22.108-10.257,42.012-12.988,14.695-2.016,29.253,1.7,45.013,2,4.165,0.078,7.841-.192,12,0,14.409,0.663,22.9,3.327,30.008-2,4.31-3.227,8.487-16.013,9-16.984,2.435-4.585,3.437-8.474,6-12.988,1.04-1.832,3.509-6.071,2-7.993-0.894-1.14-2.689-.826-5-1a19.461,19.461,0,0,1-7-2c-5.292-2.569-6.51-6.3-11-8.992a28.018,28.018,0,0,0-10-3c-8.194-.984-13.342.766-16,3-3.62,3.033-5.822,10.662-6,10.99-1.27,2.321-7.02,7.719-14,11.989a72.369,72.369,0,0,1-27.008,9.991,71.134,71.134,0,0,1-21.006,0,41.715,41.715,0,0,1-14,12.988c-3.305,1.81-8.2,3.883-12,8.991C733.354,111.475,730.409,115.883,731.736,117.608Z"/>
  <path class="cls-5" d="M815.76,16.7c5.855,3.539,10.123,8.24,12,13.987,0.955,2.918,1,5.973,1,9.991,0,2.667,0,5.49,0,7.993a61.081,61.081,0,0,1,10-2,64.354,64.354,0,0,1,14,0,100.665,100.665,0,0,1,11,2,96.92,96.92,0,0,0,18,2A106.172,106.172,0,0,0,815.76,16.7Z"/>
  <path class="cls-2" d="M879.778,58.663c0.26-1.026-1.418-2.462-3-3-2.038-.689-4.711-0.144-5,1-0.261,1.026,1.418,2.462,3,3C876.814,60.351,879.488,59.806,879.778,58.663Z"/>
  <path class="cls-2" d="M886.78,59.662c0.538-.325,2.318,1.14,3,3,0.453,1.231.494,2.809,0,3-0.52.2-1.522-1.192-2-2C886.882,62.145,886.241,59.987,886.78,59.662Z"/>
  <path class="cls-5" d="M804.757,11.707c0.252-.382-3.97-4.323-10-6.993a37.5,37.5,0,0,0-17-3c-18.851.794-35.277,12.519-35.01,12.988,0.2,0.351,10.046-6.327,25.007-8.992,11.2-1.995,19.407-1.135,26.008,1C799.79,8.663,804.522,12.062,804.757,11.707Z"/>
  <path class="cls-5" d="M728.736,50.67q0.5,9.991,1,19.981l-17,14.986-3,1a10.34,10.34,0,0,1-2.837-2.063c-1.67-1.728-2.9-4.88-3.165-9.925-0.3-5.755,1.112-10.72,2-11.989a14.441,14.441,0,0,1,7-5C716.516,56.149,723.29,53.079,728.736,50.67Z"/>
  <path class="cls-5" d="M724.734,106.618c-0.866.472-2.873,1.59-5,1-4.307-1.2-7.166-8.9-5-13.987,1.01-2.374,2.687-3.183,5-5,4.428-3.467,7-10.511,14-12.988a18.114,18.114,0,0,1,5-1,30.95,30.95,0,0,0,7,4c1.007,0.409,9.111,1.788,10,4,1.092,2.7-2.751,7.132-10,12.988C738.755,101.27,728.408,104.616,724.734,106.618Z"/>
  <path class="cls-5" d="M668.719,69.653a38.925,38.925,0,0,0-1,6.993c-0.253,5.094.593,8.246-1,12.988-1.348,4.011-3.623,6.245-5,6.993-3.755,2.039-8.217.888-11-1-3.3-2.236-5.53-6.286-5-9.991,0.666-4.669,5.472-7.226,13-10.99Z"/>
  <path class="cls-2" d="M619.705,90.633c0.457,0.579.165,1.9-1,4-2.4,4.324-4.745,6.137-6,5.995-2.691-.306-5.069-4.365-4-6.994,0.508-1.251,3.1-1.965,7-3C617.194,90.239,619.042,89.794,619.705,90.633Z"/>
  <path class="cls-2" d="M597.7,105.619c-1.009-.315-2.6.841-5,3-2.077,1.868-3.21,3.08-3,4,0.339,1.481,3,2.23,5,2,1.879-.218,4.44-1.468,5-4C600.139,108.635,599.283,106.114,597.7,105.619Z"/>
  <path class="cls-2" d="M571.691,127.6a31.6,31.6,0,0,1-11,0c-2.521-.454-9-1.981-9-4,0-1.453,3.376-2.56,5-3a12.854,12.854,0,0,1,10,1A11.972,11.972,0,0,1,571.691,127.6Z"/>
  <path class="cls-2" d="M518.677,117.608c-0.407,1.406,3.817,3.952,7,4.995a12.928,12.928,0,0,0,9,0c2.016-.812,4.121-1.933,4-3C538.336,116.525,519.479,114.83,518.677,117.608Z"/>
  <path class="cls-7" d="M489.669,121.6a28.132,28.132,0,0,1,14-3,27,27,0,0,1,6,1,7.417,7.417,0,0,1-3,2c-2.174.745-4.586-.062-6,0-2.014.088-2.99,0.879-5,1A14.058,14.058,0,0,1,489.669,121.6Z"/>
  <path class="cls-8" d="M588.7,157.57"/>
  <path class="cls-9" d="M210.59,169.559a243.18,243.18,0,0,0-27.007-4c-7.661-.7-15.311-1.03-23.007-1a199.155,199.155,0,0,1,57.016-6.994Z"/>
  <path class="cls-9" d="M289.613,153.574a47.75,47.75,0,0,0-4,29.972c-9.749-1.567-19.3-3.211-29.008-5-13.482-2.477-26.612-5.1-40.011-7.993a18.948,18.948,0,0,1,3-6.993,24.055,24.055,0,0,1,5.387-5.167,10.569,10.569,0,0,1,3.615-1.827,10.062,10.062,0,0,1,5,0Z"/>
  <path class="cls-9" d="M296.615,152.575a72.4,72.4,0,0,0-4,32.969,288.733,288.733,0,0,0,36.01,1c14.555-.532,25.789-2.316,36.01-5.994a100.325,100.325,0,0,0,17-7.993,26.025,26.025,0,0,0,1-5.994c0.429-8.961-4.018-16.5-8-20.98a32.556,32.556,0,0,0-17-9.991,169.125,169.125,0,0,1-25.007,9.991A169.381,169.381,0,0,1,296.615,152.575Z"/>
  <path class="cls-9" d="M387.64,168.56a35.4,35.4,0,0,0-21.006-35.966,136.136,136.136,0,0,0,31.009-11.989c8.131-4.379,28.718-20.021,48.013-26.975,2.006-.723,3.976-1.379,6-2a46.656,46.656,0,0,1,3,5c2.844,5.493,8.4,18.656,3,26.975a16.458,16.458,0,0,1-8,5.994C437.418,134.343,407.746,154.554,387.64,168.56Z"/>
  <path class="cls-9" d="M571.691,54.667a195.5,195.5,0,0,0-46.012,3c-30.8,5.746-53.433,18.964-63.018,27.974-1.386,1.3-2.7,2.617-4,4,0.666,1.334,1.354,2.707,2,4,3.465,6.907,5.931,11.848,6,16.984a26.376,26.376,0,0,1-4,13.987,117.424,117.424,0,0,1,41.011-12.988c7.171-.858,15.037-1.389,19.006-1,6.593,0.649,12.978,2.3,20-1a24.956,24.956,0,0,0,10-8.991c7-10.558,3.211-21.347,8-31.97A38.78,38.78,0,0,1,571.691,54.667Z"/>
  <path class="cls-9" d="M556.687,111.613a63.822,63.822,0,0,0,24.007-5.994c8.931-4.252,11.563-9.833,20.006-14.986,8.014-4.892,16.263-7.949,20-16.984a22.224,22.224,0,0,0,1-3c-0.989-.7-1.975-1.355-3-2-11.59-7.274-25.143-10.812-40.011-10.99-9.757,11.477-15.026,22.147-15,31.97a41.556,41.556,0,0,1-1,9.991A33.206,33.206,0,0,1,556.687,111.613Z"/>
  <path class="cls-9" d="M632.709,70.652c-0.988-.15-1.538-1.19-2-2-0.179-.312-1.308-1.946-2-3-2.242-3.405-6.568-4.374-9-5-3.5-.894-22.508-6.076-34.01-8.992,8.932-5.659,19.913-12,25.007-13.987a13.31,13.31,0,0,1,6-1,12.779,12.779,0,0,1,4,1c4.832,2.032,11.941,5.582,15,7.993,6.5,5.114,13.309,9.978,17.005,13.987q2.655,2.879,5,5.994a10.924,10.924,0,0,1-5,1c-3.005-.147-4.589-1.68-7-2-3.17-.418-6.512,1-10,4C634.929,69.806,633.807,70.819,632.709,70.652Z"/>
  <path class="cls-2" d="M693.726,109.615c-0.059-3.1,4.827-5.995,9-5.994,6.385,0,12.2,6.783,11,9.99-1.034,2.78-7.456,3.208-12,2C700.012,115.153,693.792,113.145,693.726,109.615Z"/>
  <path class="cls-2" d="M678.721,139.587c-0.725-.725-3.95.374-4,2a2.17,2.17,0,0,0,2,2C678.347,143.533,679.447,140.312,678.721,139.587Z"/>
  <path class="cls-2" d="M671.719,117.608c-1.5,3.59.938,7.893,4,8.991,4.557,1.634,10.741-3.736,10-7.992-0.472-2.725-3.768-4.895-7-5C676.294,113.536,672.966,114.627,671.719,117.608Z"/>
  <path class="cls-2" d="M658.716,118.607c-2.86.071-5.8,5.418-5,9.99,0.879,5,6.16,9.185,10,7.993a6.236,6.236,0,0,0,4-5c0.382-2.656-1.219-4.464-4-7.993C661.4,120.658,660.068,118.573,658.716,118.607Z"/>
  <path class="cls-2" d="M670.719,97.626c-1.7.017-2.582,2.344-5,5-2.333,2.556-4.231,3.865-4,5.994a4.109,4.109,0,0,0,2,3c1.778,1.034,4.372.513,8-2,2.684-1.855,3.877-4.08,4-4.995C676.174,101.284,673.267,97.6,670.719,97.626Z"/>
  <path class="cls-2" d="M652.714,105.619c0.64,1.719-1.058,3.562-3,6.993a4.337,4.337,0,0,1-2,2c-1.97.851-4.226-.467-5-1-2.258-1.55-4.377-5-3-7.992,1.65-3.587,6.515-3.231,8-3C649.041,102.831,651.945,103.554,652.714,105.619Z"/>
  <path class="cls-5" d="M164.578,369.372c-2.85-2.373,5-16.487,12-27.974a48.66,48.66,0,0,1,21.006-13.987,46.34,46.34,0,0,1,9-2L179.582,361.38C173.361,366.357,166.593,371.05,164.578,369.372Z"/>
  <path class="cls-5" d="M544.684,194.536q0.5,3.5,1,6.993c1.337,7.171-.35,12.042-3,12.988-1.262.45-3.756-.318-7-3a19.349,19.349,0,0,1-6-8.992,20.749,20.749,0,0,1-1-5.994A25.533,25.533,0,0,1,544.684,194.536Z"/>
  <path class="cls-5" d="M564.69,191.539a20.855,20.855,0,0,1-13,17.983,18.6,18.6,0,0,1,0-12.988,17.346,17.346,0,0,1,3-5h10Z"/>
  <path class="cls-5" d="M561.689,163.565c1.139,0.3,2.709,3.186,4,7.992,1.555,5.782,1.2,9.657,0,10.99-0.647.716-3.384,1.775-7,2-2.5.154-4.077-.244-5-1a8.875,8.875,0,0,1-2-5,19.3,19.3,0,0,1,0-5C555.067,166.413,559.069,162.883,561.689,163.565Z"/>
  <path class="cls-5" d="M511.675,129.6c0.335-1.093,6.231-.013,13,1,9.768,1.459,15.579,2.007,21.006,6.993a24.387,24.387,0,0,1,7,11.989c1.629,6.441.806,10.18-1,11.989-1.084,1.084-3.447,1.807-7,2a34.754,34.754,0,0,1-14-2c-3.73-1.651-6.455-3.973-7-5-2.716-5.081,1.873-10.322,0-15.985C521.322,133.461,511.237,131.022,511.675,129.6Z"/>
  <path class="cls-5" d="M438.654,145.582a68.157,68.157,0,0,1,26.008,3c5.21,1.706,11.935,5.126,19,6.993,2.794,0.738,9.514,1.393,15,2,4.663,0.514,9.125.881,13-2,3.554-2.637,6.035-7.6,5-11.989-0.74-3.145-4.787-7.317-14-9.99-10.251-2.974-20.2-.938-24.007,0C466.218,136.661,452.351,140.828,438.654,145.582Z"/>
  <path class="cls-5" d="M445.656,155.572c-6.286-.262-12.59-0.6-19-1-5.08,3.565-8.744,7.19-8,9.991,1.056,3.988,20.339,6.458,22.006,6.993,9,2.891,15.781,6.627,21.006,10.99,4.137,3.455,7.909,7.63,14,7.992,8.138,0.485,17.791-6,18-12.987,0.121-3.959-4.206-9.438-15-14.986C466.642,156.388,456,156,445.656,155.572Z"/>
  <path class="cls-5" d="M454.659,195.535c-0.6,3.328-7.293,3.255-16,6.993-9.772,4.193-14.583,9.113-21.006,6.994-4.353-1.437-4.431-4.452-9-6-5.01-1.691-9.748,1.5-13-1-3.185-2.442-1.877-15.016-2-15.985-0.488-3.836-1.312-6.006,0-7.992,2.473-3.748,9.287-3.092,19-2,11.1,1.249,19.052,2.209,27.008,5.994C445.555,185.354,455.492,190.91,454.659,195.535Z"/>
  <path class="cls-5" d="M387.64,182.547c1.105,0.884.844,4.8,1,9.991,0.118,3.892.2,6.357-1,8.991-2.335,5.117-7.02,5.788-13,9.991-4.645,3.262-6.555,6.4-11,6.993-4.623.613-7.425-1.84-13-4-2.532-.979-10.5-2.022-11-4-0.857-3.389,8.433-7.478,21-14.986C375.321,186.763,383.952,179.6,387.64,182.547Z"/>
  <path class="cls-5" d="M413.647,227.505c-0.737-6.158-1.037-9.976-4-13.987a14.457,14.457,0,0,0-6-5c-5.638-2.251-11.448.685-19,5-9.7,5.535-15.122,9.026-15,12.988,0.067,2.254,2.367,5.613,8,8.991,4.8,2.877,12.615,4.492,14,5,2.544,0.922,10.418,4.025,16,7.992,0.973,0.691,4.266,3.085,6,2,1.441-.9,1.126-3.774,1-5C414.032,239.518,414.411,233.886,413.647,227.505Z"/>
  <path class="cls-5" d="M324.622,268.466a131.317,131.317,0,0,1-15-14.986c-2.471-2.9-4.791-5.882-7-8.991a5.353,5.353,0,0,1,1-9.991,58.175,58.175,0,0,0,12-7.992c3.344-2.905,5.6-5.494,10-6.994,6.356-2.166,12.021-.3,19,2,12.9,4.253,20.453,6.36,22.006,11.989a9.89,9.89,0,0,1,0,5,82.968,82.968,0,0,1-16,12.987c-3.524,2.18-13.326,6.931-20.006,11.989C328.533,265.055,326.539,266.714,324.622,268.466Z"/>
  <path class="cls-5" d="M293.614,245.488a6.318,6.318,0,0,0-10,1c-7.845,2.833-13.592,6.442-14,10.99-0.255,2.813,2.006,5.024,4,8.991a34.17,34.17,0,0,1,3,7.993,13.849,13.849,0,0,0,2,5.994,11.376,11.376,0,0,0,3,3,27.42,27.42,0,0,0,6-1c2.646-.749,4.476-1.91,7-3,2.329-1,7.376-2.133,12-3,4.176-.78,8.016-1.37,9-4,0.538-1.433.107-3.155-1-5Z"/>
  <path class="cls-5" d="M240.6,301.436c0.84,1.023,2.847.9,6,0,4.314-1.228,7.532-3.3,11-5,6.535-3.2,11.636-2.613,14-6.993a13.565,13.565,0,0,0,1-6c-0.076-3.453-1.821-10.758-7-17.983-0.865-1.206-2.1-2.721-4-3-1.13-.164-2.888.227-5,2-5.888,4.933-11.117,19.812-14,29.972C240.257,297.594,239.629,300.254,240.6,301.436Z"/>
  <path class="cls-5" d="M243.6,271.464a76.417,76.417,0,0,0-7,16.984c-1.512,5.53-2.2,10.347-6,15.985a36.365,36.365,0,0,1-14,11.989,7.4,7.4,0,0,1-5,2c-0.807,0-3.988-.115-5-2-1.374-2.555,2.146-6.487,5-10.99a49.367,49.367,0,0,0,6-13.987A96.6,96.6,0,0,1,243.6,271.464Z"/>
  <path class="cls-5" d="M207.59,299.438c0.3,0.266-1.925,3.694-3,5.994a54.688,54.688,0,0,0-3,7.992c-7.753,6.117-21.953,17.162-23.007,15.985C176.982,327.623,206.272,298.276,207.59,299.438Z"/>
  <path class="cls-5" d="M721.734,200.53c-5.139,3.2-10.07,6.485-15,9.991-4.107,2.918-8.048,5.87-12,8.991-3.009-1.05-5.965-2.034-9-3-3.344-1.06-6.626-2.043-10-3a147.958,147.958,0,0,1,12-8.992,23.417,23.417,0,0,1,9-4,26.22,26.22,0,0,1,8,0A65.473,65.473,0,0,0,721.734,200.53Z"/>
  <path class="cls-5" d="M804.757,241.492q3-1.747,5-1c3.449,1.3,5.2,8.371,3,18.982a13.08,13.08,0,0,1-5-6c-0.827-2.134-.624-3.736-1-5.994A20.879,20.879,0,0,0,804.757,241.492Z"/>
  <path class="cls-5" d="M791.753,236.5a30.018,30.018,0,0,0-4-5c-0.382-.383-4.51-3.388-6-5.994-2.348-4.1-1.385-8.339-1-11.989a41.744,41.744,0,0,0-1-13.987,243.186,243.186,0,0,1,20,19.981c5.2,5.877,9.82,11.932,8,14.986-0.633,1.064-3.093,1.727-7,2A65.338,65.338,0,0,1,791.753,236.5Z"/>
  <path class="cls-5" d="M774.748,203.527a23.107,23.107,0,0,0,0,8.992c0.44,2.1,1.308,4.679,0,6.993a7.3,7.3,0,0,1-4,3,31.151,31.151,0,0,1-8,2,32,32,0,0,1-11-1c-6.044-2.091-8.442-6.063-13-9.991a40.608,40.608,0,0,0-15-7.993l4-5,41.012-1a3.9,3.9,0,0,1,5,0A3.817,3.817,0,0,1,774.748,203.527Z"/>
  <path class="cls-2" d="M734.737,20.7c0.557,0.506-3.854,4.985-6,10.99-1.2,3.345-1.061,8.6-4,12.988-2.969,4.426-8.8,8.77-14.754,7.965a11.073,11.073,0,0,1-3.251-.972c-0.1-1,.9-2,1-3,0.867-8.312,7.7-12.511,17-19.981C730.668,23.929,734.188,20.2,734.737,20.7Z"/>
  <path class="cls-2" d="M698.727,52.669a43.979,43.979,0,0,0-3,12.988,45.91,45.91,0,0,0,1,12.988c1.711,8.115,5.192,12.854,3,16.984s-8.351,5.729-13,5c-8.455-1.333-12.065-10.124-13-12.988-3.628-11.07,3.026-23.677,12-29.972A29.536,29.536,0,0,1,698.727,52.669Z"/>
</svg>
