<svg xmlns="http://www.w3.org/2000/svg" width="150.016" height="150.016" viewBox="0 0 512 512">
  <defs>
    <style>
      .cls-1 {
        fill: #4e3224;
        stroke: #4e3224;
      }

      .cls-1, .cls-2, .cls-3, .cls-4, .cls-5 {
        stroke-linecap: round;
        stroke-linejoin: round;
        stroke-width: 3px;
        fill-rule: evenodd;
      }

      .cls-2 {
        fill: #784a32;
        stroke: #784a32;
      }

      .cls-3 {
        fill: #cbac97;
        stroke: #cbac97;
      }

      .cls-4 {
        fill: #9d6150;
        stroke: #9d6150;
      }

      .cls-5 {
        fill: #2c1e07;
        stroke: #2c1e07;
      }
    </style>
  </defs>
  <g>
    <path class="cls-1" d="M139,336a43.522,43.522,0,0,0,5-14c1.416-8.2.7-14.272-1-19-4.053-11.3-14.516-15.246-20-23-6.769-9.57-7.491-24.625-12-25-3.765-.313-7.686,7.763-11,17,8.821,13.861,18.062,25.457,27,31a29.533,29.533,0,0,1,6,5C138.834,314.777,140.439,324.507,139,336Z"/>
    <path class="cls-1" d="M160,273c1.014-.076.93,8.077,6,16,5.425,8.477,12.978,11.2,18,17,13.423,15.5,10.243,38.839,9,39-1.031.133-.657-16.131-12-27-5.259-5.039-10.894-5.755-16-12C154.563,293.233,158.31,273.127,160,273Z"/>
    <path class="cls-1" d="M205,292c-2.427,3.363-.217,9.9,3,14,5.166,6.591,11.952,5.259,18,11,2.907,2.759,5.059,8.923,8,9,5.167,0.136,12-12.588,9-22C238.3,289.256,210.165,284.843,205,292Z"/>
    <path class="cls-1" d="M261,307c-2.9,3.458-1.373,10.716,2,15a14.5,14.5,0,0,0,5,4c10.706,5.278,30.455,4.841,46,13a50.22,50.22,0,0,1,14,11,54.6,54.6,0,0,1,13,28,20.259,20.259,0,0,0,4-8c3.933-16.6-16.45-35.016-32-46C294.862,311.188,267.424,299.33,261,307Z"/>
    <path class="cls-1" d="M425,397a45.041,45.041,0,0,0,3-34c-5.366-16.571-20.685-28.6-37-30-15.592-1.337-31.591,6.994-31,12,0.561,4.755,17.052,8.326,43,15,3.528,0.908,12.359,3.191,18,11C426.02,377.949,426.973,387.188,425,397Z"/>
  </g>
  <g>
    <path class="cls-2" d="M42,270c-1.581,4.452,1.4,14.384,11,27,1.587,2.084,2.84,3.477,3,5,1.055,10.061-26.4,16.8-34,35-3.311,7.927-3.345,16.762-1,26a63.2,63.2,0,0,1,13-26c10.072-11.785,29.2-16.009,34-30,2.066-6.021-.622-20.92-12-37-2.753-3.891-5.318-6.255-8-6C45.17,264.269,42.927,267.391,42,270Z"/>
    <path class="cls-2" d="M69,265c-0.994,7.673,1.654,16.146,7,28,2.975,6.6,5.614,11.251,5,15-2.076,12.675-23.131,16.074-31,30-4.721,8.355-5.431,18.548-3,30a68.181,68.181,0,0,1,13-26c10.075-12.26,30.451-18.122,35-33,3.221-10.533-4.336-19.436-8-35-1.791-7.607-2.229-28.26-6-29C77.124,244.239,70.376,254.379,69,265Z"/>
    <path class="cls-2" d="M103,262c-0.89,5.018.84,8.859,2,12,1.431,3.876,2.293,19.864,3,33a23.608,23.608,0,0,1-1,8c-2.384,7.141-8.2,10.958-11,13-5.794,4.23-16.269,13.771-20,27-2.512,8.908-1.591,18.406,2,28,1.436-10.358,4.928-19.856,11-28,5.029-6.745,10.465-10.148,17-16,6.615-5.923,13.216-12.762,15-16,9.155-16.621.791-40.439,2-54,1.269-14.234,5.4-22.935,2-25C120.091,241.022,105.086,250.234,103,262Z"/>
    <path class="cls-2" d="M126,405c-6.728-13.914-8.761-26.72-5-38,5.99-17.966,26.489-23.284,30-42,0.641-3.418-1.53-14.346-5-25-4.391-13.483-8.345-21.427-8-34,0.295-10.754,3.592-24.922,10-26,4.471-.752,9.1,5.152,11,8,5.853,8.752,4.85,17.675,5,26,0.226,12.574,4.219,23.9,6,38,0.659,5.215,1.311,11.4-1,19-5.342,17.577-23.966,26.086-32,38C130.313,378.917,126.68,390.887,126,405Z"/>
    <path class="cls-2" d="M221,428a35.18,35.18,0,0,0,6-13c1.809-7.986.425-15.183-2-22-6.086-17.114-23.643-31.354-25-51-0.384-5.556,2.094-13.394,4-22,2.948-13.312,4.817-24.749,4-34-1.617-18.316-9.826-36.618-15-36-4.03.481-5.36,13.407-8,36-3.942,33.73-6.959,58.535,1,74,7.609,14.786,31.51,29.765,35,54A49.668,49.668,0,0,1,221,428Z"/>
    <path class="cls-2" d="M273,430a33.975,33.975,0,0,0,3-9c1.117-6.117.608-13.377-3-22-6.324-15.113-19.622-19.428-23-34-1.6-6.9,1.771-15.062,4-26,0.81-3.975,1.82-16.78,5-25,1.951-5.042,3.656-7.861,4-13,1.267-18.919-17.964-38.836-26-36-5.348,1.888-3.66,15.737-5,38-1.688,28.047-9.641,47.64-2,64,9.593,20.538,36.364,28.674,42,55A46.806,46.806,0,0,1,273,430Z"/>
    <path class="cls-2" d="M320,425c9.579-13.522,14.024-25.727,10-35-5.642-13-28.811-14.437-30-25-0.383-3.4,1.624-6.111,3-8,11.446-15.714,17.35-29.932,17-37-0.689-13.91-14.485-28.143-25-27-18.33,1.992-37.484,51.872-21,78,11.877,18.826,43.9,17.789,49,36C324.483,412.294,323.485,418.267,320,425Z"/>
  </g>
  <g>
    <path class="cls-3" d="M360,448c-1.906-.3-15.421-84.659,41-109,56.15-24.224,107.826,42.8,107,44-0.8,1.154-56.8-50.076-100-32C363.914,369.447,361.869,448.3,360,448Z"/>
    <path class="cls-3" d="M469,316a26.471,26.471,0,0,0-8,2c-5.556,2.193-8.8,5.948-13,8-8.62,4.208-15.741.116-25,0-25.941-.324-52.367,17.966-60,29-0.977,1.412-3.421,5.255-8,7-3.583,1.366-7.769.7-10,1-6,.805-10.077,3.818-10,4,0.1,0.229,6.916-4.287,16-4,3.286,0.1,8.064,1.967,13,1,7.316-1.434,11.675-7.241,14-10,10.02-11.892,32.086-26.166,52-24,5.048,0.549,9.373,3.043,15,1,6.617-2.4,8.367-8.373,15-12A29.379,29.379,0,0,1,469,316Z"/>
  </g>
  <path class="cls-4" d="M41,275c-0.452,2.215-4.1,3.44-10,4.5-4.554.818-12.1,0.829-18-3.5-15.842-11.621-3.358-48.226,0-48,2.151,0.145-.736,16.116,9,29C28.295,265.33,41.86,270.782,41,275Z"/>
  <path class="cls-3" d="M60,270c-1.313,2.429-7.233,5.178-17,6-7.2.606-13.485-.763-16-2-14.582-7.174-18.35-29.409-15-45,1.084-5.043,9.421-18.721,20-31,5.525-6.412,9.041-9.906,11-9,3.924,1.815-4.752,21.219-1,39C45.733,245.69,64.611,261.471,60,270Z"/>
  <path class="cls-4" d="M80,157c-1.333-1.16-4.553.393-9,3-18.893,11.076-33.113,26.3-36,32-4.509,8.905-8.338,22.118-6,41,2.152,17.38,9.6,28.618,14,32a30.571,30.571,0,0,0,14,6c8.733,1.291,14.176.094,16-2,6.823-7.832-12.236-30.566-13-52C58.923,186.792,84.308,160.75,80,157Z"/>
  <path class="cls-3" d="M120,145c-1.268-1.447-4.943-.453-11,1-12.19,2.924-22.914,4.745-29,9-4.554,3.184-14.9,15.8-20,34-9.251,32.981,7.451,71.576,9,75a12.55,12.55,0,0,0,5,6c4.421,2.587,9.341,1,14,0,6.718-1.441,12.3.648,15-2,8.489-8.33-11.74-36.078-10-61C95.194,175.573,124.986,150.689,120,145Z"/>
  <path class="cls-4" d="M99,269a74.646,74.646,0,0,1-5-9,82.738,82.738,0,0,1-6-19c-4.591-24-5.522-47.439-3-57,5.411-20.515,14.226-31.565,23-38,9.184-6.735,24.988-8.058,45-11,8.1-1.19,14.882-.961,23-2,4.706-.6,7.511-1.063,8,0,1.8,3.913-43.9,17.762-57,53-5.467,14.711-2.382,27.49-3,46a212.955,212.955,0,0,1-5,39Z"/>
  <path class="cls-3" d="M113,268c3.93,5.533,14.966,4.261,32,5,3.285,0.142,6.363.547,8,0,16.623-5.553,9.58-50.764,26-77,24.7-39.462,85.347-44.277,84-54-0.345-2.491-7.484-4.767-20-7-17.016-3.036-28.97.114-45-3-3.127-.607-10.963-2.27-19,1a32.33,32.33,0,0,0-9,6c-15.8,15.239-36.856,26.532-47,54-7.225,19.565.364,29.138-6,49C113.483,252.976,108.633,261.851,113,268Z"/>
  <path class="cls-4" d="M148,274c1.764,5.707,13.167,5.143,29,10,7.265,2.229,12.679,3.172,19,1,13.429-4.614,18.825-21.059,21-27,10.1-27.59,34.731-50.216,49-61,27.674-20.915,69.039-24.887,69-34-0.015-3.455-11.406-6.7-28-14-12.37-5.44-26.015-9.068-42-11a34.575,34.575,0,0,0-9,0c-7.911,1.049-14.791,5.467-17,7-19.474,13.511-49.428,24.931-66,56-6.165,11.558-9.634,21.449-10,29a99.214,99.214,0,0,1-1,10c-0.286,1.725-.632,3.484-1,5C158.024,257.267,145.837,267,148,274Z"/>
  <path class="cls-3" d="M193,288c2.965,9.36,16.285,13.248,40,19,10.78,2.615,19.459,4.67,24,3,20.542-7.556,17.38-47.21,36-69,25.6-29.959,79.578-27.7,81-44,0.128-1.464-2.282-6.116-6-11-13.275-17.44-27.119-24.291-35-25-9.925-.892-16.278,3.269-27,8-9.907,4.372-17.25,4.288-27,9-36.452,17.617-55.042,53.246-59,62a52.408,52.408,0,0,1-8,13c-3.773,4.206-7.3,5.732-11,10C197.51,267.024,189.816,277.949,193,288Z"/>
  <path class="cls-4" d="M252,308c2.539,5.916,8.874,8.149,17,11,18.375,6.447,32.208,12.846,48,14a122.406,122.406,0,0,0,22.5-.5c47.175-5.17,73.518-22.427,80.5-35.5,19.827-37.125-10.67-99.149-49-106-6.9-1.234-23.306.552-41,11-24.525,14.482-49.35,53.223-51,55-2.53,2.725-9.164,11.444-14,18C254.589,289.115,248.423,299.666,252,308Z"/>
  <path class="cls-4" d="M337,333c-1.814,8.114,18.305,20.661,36,24,32.413,6.116,63.227-17.681,61-27C430.5,315.342,340.586,316.963,337,333Z"/>
  <path class="cls-5" d="M343,332c-1.554,3.567,5.935,10.771,13,14,7.546,3.448,12.555,3.187,16,1,2.91-1.847,5.829-5.715,5-9C374.762,329.133,345.634,325.955,343,332Z"/>
  <path class="cls-3" d="M400,349c10.741,1.218,22.1-3.857,29-12,3.317-3.912,7.955-13.967,8-28,0.028-8.622-1.289-44.2-23-55-33.387-16.608-93.728,36.336-87,63,3.261,12.924,22.519,20.65,34,23,7.721,1.581,14.42.081,23,3C387.947,344.343,393.369,348.248,400,349Z"/>
</svg>
