<svg xmlns="http://www.w3.org/2000/svg" width="150" height="150" viewBox="0 0 150 150">
  <defs>
    <style>
      .cls-1 {
        fill: #ffdca4;
      }

      .cls-1, .cls-2, .cls-3, .cls-4, .cls-5 {
        fill-rule: evenodd;
      }

      .cls-1, .cls-3 {
        opacity: 0.75;
      }

      .cls-2, .cls-4 {
        fill: #ffc96f;
      }

      .cls-2 {
        opacity: 0.5;
      }

      .cls-3 {
        fill: none;
        stroke: #ffdca4;
        stroke-linecap: round;
        stroke-linejoin: round;
        stroke-width: 3px;
      }

      .cls-5 {
        fill: #ffb234;
      }
    </style>
  </defs>
  <g id="Artboard_1" data-name="Artboard 1">
    <path class="cls-1" d="M82,36c-2,.843.79,8.654-3,14-3.324,4.689-8.39,3.473-11,8-3.441,5.968,2.769,12.657-1,19a8.4,8.4,0,0,1-5,4c-2.208.492-3.619-.539-6-1a14.855,14.855,0,0,0-8,1c-4.283,1.692-6.69,5.607-11,11a23.28,23.28,0,0,1-5,5c-3.447,2.435-6.857,2.891-10,4-2.731.964-9.454,6.732-15,15a61.993,61.993,0,0,0-5,9,124.335,124.335,0,0,1,19-14c12.154-7.287,25.19-10.868,35-16,16.083-8.414,29.669-21.761,41-40C91.606,45.919,84.551,34.927,82,36Z"/>
    <path class="cls-1" d="M24,148a65.3,65.3,0,0,0,12-6c4.966-3.163,9.639-7.1,11-9,4.283-5.971,3.408-12.315,9-18,3.482-3.54,6.857-3.851,11-7a38.346,38.346,0,0,0,8-8c2.471-3.7,2.323-6.442,5-10,4.769-6.338,9.985-4.969,15-11,3.154-3.793,2.334-6.64,6-10,6.409-5.873,17-3.145,18-6,1.181-3.371-11.716-10.978-23-17A79.841,79.841,0,0,1,86,64,98.975,98.975,0,0,1,74,77,140.706,140.706,0,0,0,58,95c-7.41,10.086-12.714,22.8-17,30A146.8,146.8,0,0,1,24,148Z"/>
    <path class="cls-2" d="M58,94A159.817,159.817,0,0,0,76,80a160.566,160.566,0,0,0,26-30l-4-3c-4.078,6.212-8.389,12.181-13,18A249.332,249.332,0,0,1,58,94Z"/>
    <path class="cls-3" d="M58,139c6.289-18.484,15.566-31.449,28-39,3.483-2.115,17.195-5.72,24-14,8.208-9.986,5.812-26.545,13-29,3.782-1.292,8.956,1.324,11,5,1.628,2.928,1.154,6.284,0,10-3.714,11.957-10.525,20.362-14,23-7.959,6.041-14.468,5.048-22,10-8.05,5.293-13.631,14.069-17,26"/>
    <path class="cls-3" d="M11,93c5.688-3.862,11.261-7.47,17-11,6.378-3.923,11.931-6.826,16-11,11.383-11.676,9.245-25.14,21-34,11.317-8.53,29.024-4.533,30-9,0.545-2.5-4.2-5.61-7-7-10.195-5.051-24.944-1.8-33,7-6.418,7.012-5.874,15.235-10,22-4.99,8.182-13.637,14.146-26,18"/>
    <path class="cls-4" d="M76,26c-4.7-4.224-7.89-8.874-7-13C70.591,5.625,84.643,2.833,98,2c12.89-.8,23.58,2.547,28,5a41.355,41.355,0,0,1,15,14c4.068,6.477,5.265,15.423,6,28,0.57,9.748.716,20.015-5,27-1.954,2.388-3.925,3.623-6,4-4.251.773-8.656-2.051-12-6a14.941,14.941,0,0,1-7-1,16.074,16.074,0,0,1-9-10A28.92,28.92,0,0,1,88,42,16.239,16.239,0,0,1,76,26Z"/>
    <path class="cls-5" d="M69,12c-0.892,2.083-.74,4.694,1,8a12.962,12.962,0,0,0,7,6,11.978,11.978,0,0,0,0,8c1.583,4.289,5.806,7.42,11,8a28.057,28.057,0,0,0,21,21,12.389,12.389,0,0,0,15,10,10.925,10.925,0,0,0,10,7,10.813,10.813,0,0,0,9-5,8.544,8.544,0,0,1-11-5,13.442,13.442,0,0,1-15-11A49.372,49.372,0,0,1,89,32a11.147,11.147,0,0,1-7-4,11.306,11.306,0,0,1-2-10A11.235,11.235,0,0,1,73,8,8.02,8.02,0,0,0,69,12Z"/>
  </g>
</svg>
