<svg id="Brown" xmlns="http://www.w3.org/2000/svg" width="512.008" height="250.838" viewBox="0 0 892 437">
  <defs>
    <style>
      .cls-1, .cls-7 {
        fill: #323230;
        stroke: #323230;
      }

      .cls-1, .cls-2, .cls-3, .cls-4, .cls-5, .cls-6, .cls-7 {
        stroke-linecap: round;
        stroke-linejoin: round;
        fill-rule: evenodd;
      }

      .cls-1, .cls-2, .cls-3, .cls-4 {
        stroke-width: 1px;
      }

      .cls-2 {
        fill: #141414;
        stroke: #141414;
      }

      .cls-3, .cls-5 {
        fill: #f0efea;
        stroke: #f0efea;
      }

      .cls-4 {
        fill: #fff5ec;
        stroke: #fff;
      }

      .cls-5, .cls-6, .cls-7 {
        stroke-width: 3px;
      }

      .cls-6 {
        fill: #201f1e;
        stroke: #201f1e;
      }
    </style>
  </defs>
  <path class="cls-1" d="M564,272c-2.346,7.358-5.84,11.684-10,17-4.282,5.472-7.378,11.311-11,14-4.5,3.338-20.9,6.983-41.328,4.435-6.305-.787-12.52-2.024-18.005-6.994-5.747-5.207-10.239-14.273-8-21.979,2.629-9.059,13.318-12,24.335-17.462,14.173-7.03,25.138-15.952,30-22,4.8-5.971,8.812-13.055,15-13,3.784,0.033,9.3,4.189,15,14a51.954,51.954,0,0,1,6,16A44.747,44.747,0,0,1,564,272Z"/>
  <path class="cls-1" d="M471.664,276.464a26.9,26.9,0,0,0,19,32.969l-78.022-1Q442.155,292.448,471.664,276.464Z"/>
  <path class="cls-1" d="M647,235c0.666,1.774-11.65,6.687-21,17-4.473,4.934-7.7,10.621-11,15-4.542,6.032-9.831,12.312-13,15-9.282,7.874-18.515,9.986-32,15-10.859,4.037-17.01,7.191-18.314,5.439-1.432-1.924,4.085-8.755,14.314-20.439,4.077-4.656,8.8-9.87,12-13,11.072-10.824,22.857-19.7,31-24C627.532,235.224,646.136,232.7,647,235Z"/>
  <path class="cls-1" d="M320.621,220.516a305,305,0,0,0-45.012-5c-7.375-.267-14.627-0.267-22.006,0,3.555,17.336,12.933,27.5,22.006,27.974a15.052,15.052,0,0,0,8-2c7-4.032,13.972-8.009,21.006-11.988C309.953,226.489,315.268,223.5,320.621,220.516Z"/>
  <path class="cls-1" d="M244.6,211.524a61.873,61.873,0,0,0,26.007,36.966c-3.924,4.236-8.312,6.784-13,6.993a16.071,16.071,0,0,1-6-1c-14.969-5.578-49.175-21.152-63.018-31.97-9.656-7.546-18.943-15.5-28.008-23.977a463.753,463.753,0,0,1,51.015,5.994C222.738,206.472,233.619,208.777,244.6,211.524Z"/>
  <path class="cls-1" d="M150.574,196.539a131.5,131.5,0,0,0,32.009,26.974A369.4,369.4,0,0,0,82.555,194.54Z"/>
  <path class="cls-2" d="M802,70.261a31.537,31.537,0,0,0-10.94-17.307c-10.905-8.872-19.6-10.571-26.338-8.065C756.9,47.8,751.143,55.927,751.007,62.4c-0.131,6.255,5.639,10.309,11.44,12.5C773.408,79.036,788.683,76.259,802,70.261Z"/>
  <path class="cls-1" d="M178.581,230.507c-14.395-5.688-30.2-11.47-46.012-16.984-9.859-3.439-23.774-7.82-41.012-6.994-23.656,1.134-38.281,8.876-45.013,15.985-8.971,9.474-7.124,17.5-17,26.975-5.308,5.088-13.312,9.552-21.006,14.986-3.583,2.531-9.605,7-9,11.989,0.265,2.195,1.835,4.532,6,6.993,9.223,5.448,26.031,7.57,48.013,0,16.712-5.755,26.185-12.878,41.012-21.979a239.364,239.364,0,0,1,37.01-18.983A199.554,199.554,0,0,1,178.581,230.507Z"/>
  <path class="cls-1" d="M719.733,255.483a367.429,367.429,0,0,1,41.011,3c10.1,1.373,18.215,3.25,27.008,7.992a68.2,68.2,0,0,1,16,11.989,255.855,255.855,0,0,1-34.009,37.964A213.523,213.523,0,0,1,722.734,349.4a125.609,125.609,0,0,1-43.012,12.988c-16.539,1.817-31.258,1.44-34.01-5-2.476-5.79,7.5-16.011,25.007-32.969,12.162-11.781,22.387-21.852,32.009-35.967A152.894,152.894,0,0,0,719.733,255.483Z"/>
  <path class="cls-3" d="M139.571,425.324a44.242,44.242,0,0,0,2-15.985,43.315,43.315,0,0,0-1-6.993c-6.7-.191-12.3,1.257-16,5-4.187,4.23-3.768,10.49-6,14.986-2.316,4.663-9.226,10.284-8,12.988,1.038,2.294,5.879,2.4,10,2a25.225,25.225,0,0,0,15-6.993A25.723,25.723,0,0,0,139.571,425.324Z"/>
  <path class="cls-3" d="M160.576,362.383q-4,10.99-8,21.98c-6.554,5.887-16.435,14.4-18.005,12.988-0.508-.456-0.052-1.866,1-4C140.169,384.045,151.825,371.211,160.576,362.383Z"/>
  <path class="cls-3" d="M175.581,378.368a39.974,39.974,0,0,1,10,24.977c-6.15,3.621-12.056,7.225-18,10.99-10.609,6.715-17.668,11.467-21,8.991-3.788-2.809-.589-13.334,2-19.981,4.217-10.828,10.7-17.171,15-19.981A35.9,35.9,0,0,1,175.581,378.368Z"/>
  <path class="cls-3" d="M238.6,368.378a196.048,196.048,0,0,1-46.013,29.972,39.444,39.444,0,0,1-9-24.977c9.974-13.09,20.016-25.5,30.008-36.965,7.134-8.189,16.523-18.22,21.006-15.985,3.264,1.626,2.393,8.99,2,15.985A139.924,139.924,0,0,0,238.6,368.378Z"/>
  <path class="cls-3" d="M299.615,344.4a176.765,176.765,0,0,0-17-45.957,92.954,92.954,0,0,0-35.01,14.986,137.366,137.366,0,0,0-4,46.956,4.832,4.832,0,0,0,2,3c1.823,1.114,4.15.3,5,0,11.994-4.177,21.71-6.27,33.009-11.988A156.739,156.739,0,0,1,299.615,344.4Z"/>
  <path class="cls-3" d="M305.617,338.406c4.755,3.53,11.276,1.439,22.006-3,7.805-3.228,16.532-6.7,25.007-9.991a9.012,9.012,0,0,0,5-5,8.229,8.229,0,0,0,0-5c-2.417-8.957-14.977-19.532-20.006-25.975a12.909,12.909,0,0,0-5-4c-3.67-1.486-7.192-.464-9,0-1.3.333-10.643,1.468-15,2a41.915,41.915,0,0,0-14,4c-2.937,1.539-5.122,3.36-6,5.994-1.1,3.3.315,6.46,1,7.993,3.962,8.862,7.954,17.56,12,25.975A11.274,11.274,0,0,0,305.617,338.406Z"/>
  <path class="cls-3" d="M423.65,273.466c1.62,7.768.892,15.189-3,20.981-3.337,4.965-7.761,6.991-12,8.991-9.8,4.623-20.382,8.538-31.009,12.988-2.428,1.017-7.7,3.3-12,1-3.406-1.824-4.586-5.688-5-6.993a81.935,81.935,0,0,0-7-15.985c-6.095-9.76-20.243-13.029-20-18.982,0.131-3.279,4.422-4.987,11-8.992,4.277-2.6,15.36-10.264,24.007-14.986a25.967,25.967,0,0,1,9-3,25.4,25.4,0,0,1,10,1C398.385,252.541,413.521,264.18,423.65,273.466Z"/>
  <path class="cls-3" d="M431.652,289.452c2.027-.632,3.994-1.287,6-2,19.465-6.9,30.982-16.915,49.014-26.974,8.811-4.916,18.9-10.028,18-13.987-0.74-3.253-9.978-3.55-16-7.993a28.819,28.819,0,0,1-10-12.988c-1.454-4.094-2.129-9.942-3-15.985-0.306-2.118-.608-3.821-2-5-3.857-3.25-11.1,1.829-22.006,5.994-14.967,5.715-25.063,4.865-30.008,13.987a20.115,20.115,0,0,0-2,6c-2.293,12.381,3.432,24.472,9,36.965a44.274,44.274,0,0,1,3,9.991A39.026,39.026,0,0,1,431.652,289.452Z"/>
  <path class="cls-3" d="M482.667,203.532c-1.182,1.9-.551,4.661,0,8.992,1.006,7.918,1.961,13.23,5,16.984,1.426,1.76,7.371,5.369,14,7.992,3.219,1.273,5.834,1.6,9,3a10.1,10.1,0,0,0,4,1c3.425,0.038,6.359-2.392,11-6.993,2.909-2.883,4.488-5.975,7-7.993a4.7,4.7,0,0,0,2-3c0.175-1.774-1.283-3.212-2-4-1.683-1.837-2.344-4.338-4-6.993-3.146-5.041-7.211-9.039-9-9.991-4.776-2.539-9.384-2.158-12-2C494.2,201.355,485.643,198.739,482.667,203.532Z"/>
  <path class="cls-3" d="M527.679,171.562c-4.2-1.123-6.652-.14-11,0-6.043.194-15.4-3.415-17.005-1-1.377,2.076,2.916,5.933,3,10.99,0.018,1.036-.926,4.374,0,6.993a10.539,10.539,0,0,0,6,5.994c3.39,1.362,6.4.479,9,0,4.417-.813,8.064.191,13,0,9.633-.371,15.145-1.639,16-4,0.7-1.929-2.011-6.2-8-11.989C534.548,174.562,530.957,172.437,527.679,171.562Z"/>
  <path class="cls-3" d="M630.708,260.479a37.755,37.755,0,0,1,8-12.988c4.01-4.211,8.262-5.941,10-6,3.806-.118,6.625,2.11,10,5,2.733,2.335,5.42,4.68,8,6.993Z"/>
  <path class="cls-3" d="M672.72,252.486l-15-14.986a54.285,54.285,0,0,0,7-7.992c1.341-1.89,2.524-3.784,5-5,3.117-1.524,7.837-1.372,15,2,9.961,4.685,19.929,13.3,28.008,21.98Z"/>
  <path class="cls-3" d="M720.733,248.49l31.009,1a68.538,68.538,0,0,0-11-18.982C732.089,220,724,216.14,719.733,216.52c-3.392.3-6.482,2.6-11,5.994-2.435,1.828-5.33,4-8,5.995Z"/>
  <path class="cls-3" d="M754.743,236.5c-1.16,1.465-.6,3.6,0,5.994q1.092,4.324,2,8.992a129,129,0,0,1,14,2q6.079,1.21,12,3a82.03,82.03,0,0,0-1-15.985c-0.651-3.832-1.61-6.912-4-7.992-3.038-1.372-7.715,2.383-11,3C762.974,236.206,756.63,234.117,754.743,236.5Z"/>
  <path class="cls-3" d="M786.752,256.482V245.493c4.714-1.288,10.046-1.157,13,2,2.276,2.427,2.274,5.722,2,9.99-0.24,3.742-.567,7.352-1,10.99Z"/>
  <path class="cls-3" d="M805.757,275.465c1.453,0.14,3.025-3.9,4-6.994-0.537-2.019-1.626-4.972-3-5-1.557-.026-3.109,3.718-3,6.993C803.826,272.557,804.588,275.351,805.757,275.465Z"/>
  <path class="cls-3" d="M767.672,54.483c-0.364-.566-0.272-1.627,1.033-3.328a6.13,6.13,0,0,1,2.045-1.728,6.682,6.682,0,0,1,3.056-.128c1.785,0.3,2.773.967,2.937,1.337,0.262,0.594-.209,1.311-0.577,2.4a3.363,3.363,0,0,1-.914,1.863c-0.725.543-1.879,0.653-3.85,0.526C769.3,55.286,767.941,54.9,767.672,54.483Z"/>
  <path class="cls-1" d="M850.77,160.572c0.454,0.432,4.679-2.212,8-6.993,2.41-3.469,4.506-9.053,5-16.984a63.632,63.632,0,0,0-2-19.982,55.719,55.719,0,0,1-10,3,56.68,56.68,0,0,1-14,1,130.846,130.846,0,0,1-17-2c-12.864-2.7-25.821-4.249-34.009-4a98.56,98.56,0,0,0-29.008,5c-5.22,1.78-8.815,4.128-14,5.994-9.877,3.551-23.35,6.174-36.01,7.992-4.135.594-12.83,1.785-16,7.993a10.926,10.926,0,0,0,0,9.991c2.96,5.223,10.759,6,19,5.994,10.607,0,22.945-.923,28.008-2,15.9-3.376,33.195-7.6,39.011-10.99a80.318,80.318,0,0,1,14-6.993c12.4-4.373,22.1-4.784,30.009-3,3.949,0.893,9.241,3.36,15,4a43.5,43.5,0,0,0,15-1c-2.043,4.816-2.4,8.8-1,11.988,0.779,1.771,1.89,2.849,2,5C852.933,157.754,850.39,160.212,850.77,160.572Z"/>
  <path class="cls-1" d="M864.774,147.584c-0.319-.2,2.5-4.208,4-9.99a43.59,43.59,0,0,0,0-20.981q-0.5-4-1-7.992c1.728-3.669,3.372-7.28,5-10.99,2.2-5.011,5.481-12.245,6-13.987,1.465-4.906,1.993-8.634,4-8.991,2.693-.48,6.543,5.368,8,10.99,2.489,9.593-2.112,18.366-4,21.98C881.954,116.853,865.7,148.168,864.774,147.584Z"/>
  <path class="cls-1" d="M731.736,122.608c2.635,3.423,22.108-10.257,42.012-12.988,14.695-2.016,29.253,1.7,45.013,2,4.165,0.078,7.841-.192,12,0,14.409,0.663,22.9,3.327,30.008-2,4.31-3.227,8.487-16.013,9-16.984,2.435-4.585,3.437-8.474,6-12.988,1.04-1.832,3.509-6.071,2-7.993-0.894-1.14-2.689-.826-5-1a19.461,19.461,0,0,1-7-2c-5.292-2.569-6.51-6.3-11-8.992a28.02,28.02,0,0,0-10-3c-8.194-.984-13.342.766-16,3-3.62,3.033-5.822,10.662-6,10.99-1.27,2.321-7.02,7.719-14,11.989a72.369,72.369,0,0,1-27.008,9.991,71.134,71.134,0,0,1-21.006,0,41.714,41.714,0,0,1-14,12.988c-3.305,1.81-8.2,3.883-12,8.991C733.354,116.475,730.409,120.883,731.736,122.608Z"/>
  <path class="cls-1" d="M815.8,33.91c5.85,2.357,10.113,5.487,11.986,9.315,0.951,1.943.99,3.978,0.989,6.653,0,1.776,0,3.656-.01,5.323a88.733,88.733,0,0,1,10-1.331,96.481,96.481,0,0,1,14,0c3.954,0.272,7.112.786,11,1.331a143.81,143.81,0,0,0,18,1.331A113.514,113.514,0,0,0,849.8,40.564,148.4,148.4,0,0,0,815.8,33.91Z"/>
  <path class="cls-3" d="M879.778,63.663c0.26-1.026-1.418-2.462-3-3-2.038-.689-4.711-0.144-5,1-0.261,1.026,1.418,2.462,3,3C876.814,65.351,879.488,64.805,879.778,63.663Z"/>
  <path class="cls-3" d="M886.78,64.662c0.538-.325,2.318,1.14,3,3,0.452,1.231.493,2.809,0,3-0.521.2-1.523-1.192-2-2C886.882,67.145,886.241,64.987,886.78,64.662Z"/>
  <path class="cls-1" d="M804.807,30.584c0.252-.254-3.965-2.879-10-4.657a54.452,54.452,0,0,0-17-2c-18.852.529-35.292,8.337-35.025,8.65,0.2,0.234,10.053-4.214,25.017-5.988,11.205-1.329,19.409-.756,26.007.665C799.844,28.557,804.572,30.82,804.807,30.584Z"/>
  <path class="cls-1" d="M728.736,55.67q0.5,9.991,1,19.981l-17,14.986-3,1a10.34,10.34,0,0,1-2.837-2.063c-1.67-1.728-2.9-4.88-3.165-9.925-0.3-5.755,1.112-10.72,2-11.989a14.441,14.441,0,0,1,7-5C716.516,61.149,723.29,58.079,728.736,55.67Z"/>
  <path class="cls-1" d="M724.734,111.618c-0.866.472-2.873,1.59-5,1-4.307-1.2-7.166-8.9-5-13.987,1.009-2.374,2.686-3.183,5-5,4.428-3.467,7-10.511,14-12.988a18.118,18.118,0,0,1,5-1,30.95,30.95,0,0,0,7,4c1.007,0.409,9.111,1.788,10,4,1.092,2.7-2.751,7.132-10,12.988C738.755,106.27,728.408,109.616,724.734,111.618Z"/>
  <path class="cls-1" d="M668.719,74.653a38.925,38.925,0,0,0-1,6.993c-0.253,5.094.593,8.246-1,12.988-1.348,4.011-3.623,6.245-5,6.993-3.755,2.039-8.217.888-11-1-3.3-2.235-5.53-6.286-5-9.99,0.666-4.669,5.472-7.226,13-10.99Z"/>
  <path class="cls-3" d="M619.705,95.633c0.457,0.579.165,1.9-1,4-2.4,4.324-4.745,6.137-6,5.995-2.691-.306-5.069-4.365-4-6.994,0.508-1.251,3.1-1.965,7-3C617.194,95.239,619.042,94.794,619.705,95.633Z"/>
  <path class="cls-3" d="M597.7,110.619c-1.009-.315-2.6.841-5,3-2.077,1.868-3.21,3.08-3,4,0.338,1.481,3,2.23,5,2,1.879-.218,4.44-1.468,5-4C600.139,113.635,599.283,111.114,597.7,110.619Z"/>
  <path class="cls-3" d="M571.691,132.6a31.6,31.6,0,0,1-11,0c-2.521-.454-9-1.981-9-4,0-1.452,3.376-2.56,5-3a12.854,12.854,0,0,1,10,1A11.972,11.972,0,0,1,571.691,132.6Z"/>
  <path class="cls-3" d="M518.677,122.608c-0.406,1.406,3.817,3.952,7,4.995a12.928,12.928,0,0,0,9,0c2.016-.812,4.121-1.933,4-3C538.336,121.525,519.479,119.83,518.677,122.608Z"/>
  <path class="cls-3" d="M489.669,126.6a28.132,28.132,0,0,1,14-3,27,27,0,0,1,6,1,7.417,7.417,0,0,1-3,2c-2.174.745-4.586-.062-6,0-2.014.088-2.99,0.879-5,1A14.058,14.058,0,0,1,489.669,126.6Z"/>
  <path class="cls-4" d="M588.7,162.57"/>
  <path class="cls-1" d="M693.726,114.615c-0.059-3.1,4.827-5.995,9-5.994,6.385,0,12.2,6.783,11,9.99-1.034,2.78-7.456,3.208-12,2C700.012,120.153,693.792,118.145,693.726,114.615Z"/>
  <path class="cls-3" d="M678.721,144.587c-0.725-.725-3.95.374-4,2a2.17,2.17,0,0,0,2,2C678.347,148.533,679.447,145.312,678.721,144.587Z"/>
  <path class="cls-1" d="M671.719,122.608c-1.5,3.59.938,7.893,4,8.991,4.557,1.634,10.741-3.736,10-7.992-0.472-2.725-3.768-4.895-7-5C676.294,118.536,672.966,119.627,671.719,122.608Z"/>
  <path class="cls-3" d="M658.716,123.607c-2.86.071-5.8,5.418-5,9.99,0.879,5,6.16,9.185,10,7.993a6.236,6.236,0,0,0,4-5c0.382-2.656-1.219-4.464-4-7.993C661.4,125.658,660.068,123.573,658.716,123.607Z"/>
  <path class="cls-3" d="M670.719,102.626c-1.7.018-2.582,2.345-5,5-2.333,2.556-4.231,3.865-4,5.994a4.109,4.109,0,0,0,2,3c1.778,1.034,4.372.513,8-2,2.684-1.855,3.877-4.08,4-4.995C676.174,106.284,673.267,102.6,670.719,102.626Z"/>
  <path class="cls-1" d="M652.714,110.619c0.64,1.719-1.058,3.562-3,6.993a4.337,4.337,0,0,1-2,2c-1.97.851-4.226-.467-5-1-2.258-1.55-4.377-5-3-7.992,1.65-3.587,6.515-3.231,8-3C649.041,107.831,651.945,108.554,652.714,110.619Z"/>
  <path class="cls-1" d="M164.578,374.372c-2.85-2.373,5-16.487,12-27.974a48.66,48.66,0,0,1,21.006-13.987,46.34,46.34,0,0,1,9-2L179.582,366.38C173.361,371.357,166.593,376.05,164.578,374.372Z"/>
  <path class="cls-1" d="M544.684,199.536q0.5,3.5,1,6.993c1.337,7.171-.35,12.042-3,12.988-1.262.45-3.756-.318-7-3a19.349,19.349,0,0,1-6-8.992,20.749,20.749,0,0,1-1-5.994A25.533,25.533,0,0,1,544.684,199.536Z"/>
  <path class="cls-1" d="M564.69,196.539a20.855,20.855,0,0,1-13,17.983,18.6,18.6,0,0,1,0-12.988,17.346,17.346,0,0,1,3-5h10Z"/>
  <path class="cls-1" d="M561.689,168.565c1.139,0.3,2.709,3.186,4,7.992,1.555,5.782,1.2,9.657,0,10.99-0.647.716-3.384,1.775-7,2-2.5.154-4.077-.244-5-1a8.875,8.875,0,0,1-2-5,19.3,19.3,0,0,1,0-5C555.067,171.413,559.069,167.883,561.689,168.565Z"/>
  <path class="cls-1" d="M511.675,134.6c0.335-1.093,6.231-.013,13,1,9.768,1.459,15.579,2.007,21.006,6.993a24.387,24.387,0,0,1,7,11.989c1.629,6.441.806,10.18-1,11.989-1.083,1.084-3.447,1.807-7,2a34.754,34.754,0,0,1-14-2c-3.73-1.651-6.455-3.973-7-5-2.716-5.081,1.873-10.322,0-15.985C521.322,138.461,511.237,136.022,511.675,134.6Z"/>
  <path class="cls-1" d="M438.654,150.582a68.155,68.155,0,0,1,26.008,3c5.21,1.706,11.935,5.126,19,6.993,2.794,0.738,9.514,1.393,15,2,4.663,0.514,9.125.881,13-2,3.554-2.637,6.035-7.6,5-11.989-0.74-3.145-4.787-7.317-14-9.99-10.251-2.974-20.2-.938-24.007,0C466.218,141.661,452.351,145.829,438.654,150.582Z"/>
  <path class="cls-1" d="M445.656,160.572c-6.286-.262-12.59-0.6-19-1-5.08,3.565-8.744,7.19-8,9.991,1.056,3.988,20.339,6.458,22.006,6.993,9,2.891,15.781,6.627,21.006,10.99,4.137,3.455,7.909,7.63,14,7.992,8.138,0.485,17.791-6,18-12.987,0.121-3.959-4.206-9.438-15-14.986C466.642,161.388,456,161,445.656,160.572Z"/>
  <path class="cls-1" d="M454.659,200.535c-0.6,3.328-7.293,3.255-16,6.993-9.772,4.193-14.583,9.113-21.006,6.994-4.353-1.437-4.431-4.451-9-6-5.01-1.691-9.748,1.5-13-1-3.185-2.442-1.877-15.016-2-15.985-0.488-3.836-1.312-6.006,0-7.992,2.473-3.748,9.287-3.092,19-2,11.1,1.249,19.052,2.209,27.008,5.994C445.555,190.354,455.492,195.91,454.659,200.535Z"/>
  <path class="cls-1" d="M387.64,187.547c1.105,0.884.844,4.8,1,9.991,0.118,3.892.2,6.357-1,8.991-2.335,5.117-7.02,5.788-13,9.991-4.645,3.262-6.555,6.4-11,6.993-4.623.613-7.425-1.84-13-4-2.532-.979-10.5-2.022-11-4-0.857-3.389,8.433-7.478,21-14.986C375.321,191.763,383.952,184.6,387.64,187.547Z"/>
  <path class="cls-1" d="M413.647,232.505c-0.737-6.158-1.037-9.976-4-13.987a14.462,14.462,0,0,0-6-5c-5.639-2.251-11.449.685-19.006,5-9.7,5.535-15.122,9.026-15,12.988,0.067,2.254,2.367,5.613,8,8.991,4.8,2.877,12.615,4.492,14,5,2.544,0.922,10.418,4.025,16,7.992,0.973,0.691,4.266,3.085,6,2,1.441-.9,1.126-3.774,1-5C414.032,244.518,414.411,238.886,413.647,232.505Z"/>
  <path class="cls-1" d="M324.622,273.466a131.389,131.389,0,0,1-15-14.985c-2.471-2.9-4.791-5.883-7-8.992a5.353,5.353,0,0,1,1-9.991,58.175,58.175,0,0,0,12-7.992c3.344-2.905,5.6-5.494,10-6.994,6.356-2.166,12.021-.3,19,2,12.9,4.253,20.453,6.36,22.006,11.989a9.89,9.89,0,0,1,0,5,82.968,82.968,0,0,1-16,12.987c-3.524,2.18-13.326,6.931-20.006,11.989C328.533,270.055,326.539,271.714,324.622,273.466Z"/>
  <path class="cls-1" d="M293.614,250.488a6.318,6.318,0,0,0-10,1c-7.845,2.833-13.592,6.442-14,10.99-0.255,2.813,2.006,5.024,4,8.991a34.17,34.17,0,0,1,3,7.993,13.849,13.849,0,0,0,2,5.994,11.376,11.376,0,0,0,3,3,27.42,27.42,0,0,0,6-1c2.646-.749,4.476-1.91,7-3,2.329-1,7.376-2.133,12-3,4.176-.78,8.016-1.37,9-4,0.538-1.433.107-3.155-1-5Z"/>
  <path class="cls-1" d="M240.6,306.436c0.84,1.023,2.847.9,6,0,4.314-1.228,7.532-3.3,11-5,6.535-3.2,11.636-2.613,14-6.993a13.565,13.565,0,0,0,1-6c-0.076-3.453-1.821-10.758-7-17.983-0.865-1.206-2.1-2.721-4-3-1.13-.164-2.888.227-5,2-5.887,4.933-11.117,19.812-14,29.972C240.257,302.594,239.629,305.254,240.6,306.436Z"/>
  <path class="cls-1" d="M243.6,276.464a76.417,76.417,0,0,0-7,16.984c-1.512,5.53-2.2,10.347-6,15.985a36.365,36.365,0,0,1-14,11.989,7.4,7.4,0,0,1-5,2c-0.807,0-3.988-.115-5-2-1.374-2.555,2.147-6.487,5-10.99a49.367,49.367,0,0,0,6-13.987A96.6,96.6,0,0,1,243.6,276.464Z"/>
  <path class="cls-1" d="M207.59,304.438c0.3,0.266-1.925,3.694-3,5.994a54.688,54.688,0,0,0-3,7.992c-7.753,6.117-21.953,17.162-23.007,15.985C176.982,332.623,206.272,303.276,207.59,304.438Z"/>
  <path class="cls-1" d="M721.734,205.53c-5.139,3.2-10.07,6.485-15,9.991-4.107,2.918-8.048,5.87-12,8.991-3.009-1.05-5.965-2.034-9-3-3.344-1.06-6.626-2.043-10-3a147.958,147.958,0,0,1,12-8.992,23.417,23.417,0,0,1,9-4,26.22,26.22,0,0,1,8,0A65.473,65.473,0,0,0,721.734,205.53Z"/>
  <path class="cls-1" d="M804.757,246.492q3-1.747,5-1c3.449,1.3,5.2,8.371,3,18.982a13.082,13.082,0,0,1-5-5.994c-0.827-2.135-.624-3.737-1-6A20.879,20.879,0,0,0,804.757,246.492Z"/>
  <path class="cls-1" d="M791.753,241.5a30.018,30.018,0,0,0-4-5c-0.382-.383-4.51-3.388-6-5.994-2.348-4.1-1.385-8.339-1-11.989a41.744,41.744,0,0,0-1-13.987,243.186,243.186,0,0,1,20,19.981c5.2,5.877,9.82,11.932,8,14.986-0.633,1.064-3.093,1.727-7,2A65.338,65.338,0,0,1,791.753,241.5Z"/>
  <path class="cls-1" d="M774.748,208.527a23.107,23.107,0,0,0,0,8.992c0.44,2.1,1.308,4.679,0,6.993a7.3,7.3,0,0,1-4,3,31.141,31.141,0,0,1-8,2,32,32,0,0,1-11-1c-6.044-2.091-8.442-6.063-13-9.991a40.608,40.608,0,0,0-15-7.993l4-5,41.012-1a3.9,3.9,0,0,1,5,0A3.817,3.817,0,0,1,774.748,208.527Z"/>
  <path class="cls-1" d="M734.776,36.572c0.557,0.337-3.86,3.32-6.015,7.319-1.2,2.228-1.071,5.73-4.016,8.649a19.833,19.833,0,0,1-14.764,5.3,15.425,15.425,0,0,1-3.25-.647c-0.1-.666.9-1.332,1-2,0.878-5.536,7.712-8.332,17.029-13.307C730.7,38.723,734.227,36.239,734.776,36.572Z"/>
  <path class="cls-3" d="M698.727,57.669a43.979,43.979,0,0,0-3,12.988,45.91,45.91,0,0,0,1,12.988c1.711,8.115,5.192,12.854,3,16.984s-8.351,5.729-13,5c-8.455-1.333-12.065-10.124-13-12.988-3.628-11.07,3.026-23.677,12-29.972A29.536,29.536,0,0,1,698.727,57.669Z"/>
  <path class="cls-5" d="M296,197c-0.749,1.586,9.262,10.762,20,9,5.415-.889,10.466-4.443,10-6-0.5-1.655-11.069-.215-18-1C302.557,198.383,296.4,196.153,296,197Z"/>
  <path class="cls-5" d="M333,210c-4.3.571-9.7,1.1-10,0-0.317-1.148,6.918-3.739,12-8,1.835-1.538,2.906-2.839,5-4,5.469-3.034,13.479-2.473,16-3,5.952-1.243,9.9-4.176,10-4C366.248,191.458,339.076,206.607,333,210Z"/>
  <path class="cls-5" d="M309,211c0.054-.4-8.223-0.677-15-6-2.975-2.337-4.046-4.636-7-7-6.512-5.211-16.512-8.013-19-5-2.62,3.173,2.245,13.822,10,17,4.193,1.718,7.633.6,12,0C299.983,208.621,308.943,211.415,309,211Z"/>
  <path class="cls-5" d="M257,193c2.312,2.295,2.36,5.292,4,8,2.368,3.91,6.435,6.01,6,7-0.873,1.986-15.3-.947-29-9-11.626-6.836-19.94-15.7-19-17,0.882-1.22,9.152,7.016,21,8C246.948,190.577,252.946,188.976,257,193Z"/>
  <path class="cls-5" d="M208,178c3.526,0.738,5.205,9.187,8,13,6.457,8.809,17.286,11.188,17,12-0.3.844-11.839-4.874-25-6-5.939-.508-10.534-0.195-12-3C193.356,188.941,202.53,176.855,208,178Z"/>
  <path class="cls-5" d="M194,176c1.252,1.915-2.251,6.494-3,10-0.831,3.888-.137,6.557-2,8-2.193,1.7-5.754.029-12-2-3.148-1.023-5.784-1.583-8-3-7-4.475-11.2-13.358-9-16,2.048-2.458,10.743,2.92,19,3C180.871,176.018,192.4,173.548,194,176Z"/>
  <path class="cls-5" d="M153,173c2.135,1.34,1.591,5.9,3,9,2.507,5.516,8.645,8.418,8,10-0.8,1.958-14.243-1.724-22-2-6.254-.222-10.239.631-11-1C128.96,184.625,147.245,169.389,153,173Z"/>
  <path class="cls-5" d="M133,173c0.832,1.606-4.556,4.843-7,10-1.082,2.282-1.693,4.439-4,6-2.857,1.932-5.614,1.112-10,1-2.6-.067-7.443,1.509-11,0-5.853-2.482-9.877-9.834-8-13,1.7-2.867,7.7-.7,17-1C119.383,175.7,131.827,170.736,133,173Z"/>
  <path class="cls-5" d="M86,179c0.983,0.7.667,2.095,1,4,0.585,3.349,3.7,5.561,3,7-0.98,2.01-7.469.675-11,0-6.9-1.318-18.866-1.48-19-3-0.191-2.171,14.06-3.184,21-7C81.859,179.528,84.56,177.977,86,179Z"/>
  <path class="cls-6" d="M621,76l12,7a66.218,66.218,0,0,1-12,5c-8.7,2.641-14.675,2.207-22,7-3.663,2.4-6.216,5.656-9,8a77.918,77.918,0,0,1-11,8c-5.862,3.14-13.015,5.376-23,6-9.109.569-23.344-1.871-25-2-5.863-.458-16.776.44-27,2a183.1,183.1,0,0,0-40,11c-25.437,10.028-57.373,27.753-77,44a99.423,99.423,0,0,1-17,11c-13.743,6.566-26.083,7.744-37,8-14.679.344-31.489-.652-39-2-13.043-2.34-71.053-12.928-77-14a486.558,486.558,0,0,0-61-7c5.355-.163,10.617-0.492,16-1,7.009-.662,19.43-2.544,23-3,7.58-.967,14.859-1.633,22-2,16.315-.838,29.686.84,46,0,7.335-.378,17.5-1.6,27-3,27.734-4.093,53.047-10.971,69-18,1.885-.831,6.456-2.943,9-4,9.955-4.134,18.2-5.5,28-10,12-5.507,17.444-12.6,29-19,9.4-5.2,17.439-7.1,27-12,9.743-4.992,16.45-10.648,26-16,17.917-10.042,33.672-15.408,48-18,8.354-1.511,27.392-1.487,44-1,11.929,0.35,24.431,1.108,39,8A80.877,80.877,0,0,1,621,76Z"/>
  <path class="cls-5" d="M657,70a9.19,9.19,0,0,1-5,2c-4.278.254-6.307-3.506-10-3-4.422.606-6.625,7.544-9,7-1.369-.314-1.632-3.351-3-5-2.45-2.954-6.856-2.646-7-4-0.209-1.972,8.232-5.78,17-5A28.678,28.678,0,0,1,657,70Z"/>
  <path class="cls-5" d="M617,64a8.943,8.943,0,0,1,3-5c3.138-2.457,7.852-1.341,8-2,0.174-.775-9.918-3.761-13-5-5.266-2.117-8.26-4.063-13-4-5.656.075-11.062,2.619-16,7Z"/>
  <path class="cls-5" d="M576,53a33.863,33.863,0,0,1,5-4c1.743-1.141,8.02-3.543,8-5-0.028-2.012-6.306-4.058-12-4-2.276.023-7.779,1.192-13,4-4.15,2.232-6.271,3.834-6,5,0.317,1.363,3.748,1.46,8,2A72.89,72.89,0,0,1,576,53Z"/>
  <path class="cls-5" d="M533,38c-3.327,1.964-3.576,10.347,0,13,1.869,1.387,4.1.392,8,0,2.111-.212,11.364.744,12-1,0.5-1.375-2.237-2.934-2-5,0.426-3.712,9.107-5.569,9-6s-9.177,3.387-18,1C537.588,38.806,535.173,36.717,533,38Z"/>
  <path class="cls-5" d="M526,38a32.519,32.519,0,0,1-4,11,27.794,27.794,0,0,1-8,9c-4.37,2.906-8.388,3.258-12,4a44.334,44.334,0,0,0-16,7,41.017,41.017,0,0,1,9-17C502.88,43.145,514.191,38.43,526,38Z"/>
  <path class="cls-5" d="M478,72c2.306-2.8,3.114-5.551,4-8,2.863-7.915,8.555-13.55,8-14-0.468-.379-4.261,4.588-9,8-6.48,4.666-16.23,5.7-22,13-4.167,5.272-5.948,12.5-4,14,1.522,1.168,8.753-4.477,12-6C471.244,77.009,474.776,75.918,478,72Z"/>
  <path class="cls-5" d="M449,73c1.182,1.13-.9,5.914-1,9a20.984,20.984,0,0,0,1,7L429,99c-3.9-4.626-6.726-9.991-5-14,1.426-3.313,5.23-3.632,11-6C437.64,77.917,447.439,71.507,449,73Z"/>
  <path class="cls-5" d="M423,102c0.208-1.517-1.559-2.617-3-5-1.314-2.174-1.314-4.8-3-6-5.264-3.735-19.582,4.5-19,10,0.216,2.043,2.388,2.5,3,5,0.756,3.087-1.872,6.086-1,7,1.028,1.077,10.026-4.561,11-5C417.6,105.025,422.625,104.736,423,102Z"/>
  <path class="cls-5" d="M394,117c0.449-1.077-.063-4.327-1-8-0.647-2.537-1.29-4.513-2-5-4.236-2.9-15.711,3.642-20,13-1.561,3.406-2.887,8.661-1,10,1.446,1.026,3.716-1,8-3C380.9,122.648,392.2,121.313,394,117Z"/>
  <path class="cls-5" d="M362,130c0.94-2.328-.407-4.285,0-7,0.555-3.7,3.678-5.835,3-7-1.4-2.4-15.805.73-24,11-3.981,4.989-6.994,12.206-5,14,1.6,1.444,8.553-3.558,13-5C355.27,133.967,360.48,133.764,362,130Z"/>
  <path class="cls-5" d="M331,143c-2.849,1.817-6.34,2.471-9,1-1.044-.577-2.936-3.569-4-8-1-4.182-.781-7.122,0-8,1.457-1.638,3.9-.933,8-1,4.683-.077,7.563-1.035,8,0,0.57,1.35-4.179,3.906-5,8C328.493,137.527,329.246,140.216,331,143Z"/>
  <path class="cls-5" d="M308,129c1.332,0.939-.74,4.815,0,9,0.558,3.157,1.881,4.863,1,7-1.266,3.072-5.96,4.977-10,4-2.231-.539-5.218-2.217-6-5C290.991,136.848,305.093,126.951,308,129Z"/>
  <path class="cls-5" d="M289,151a12.761,12.761,0,0,1-3-7c-0.26-3.366,2.12-6.607,1-8-1.768-2.2-10.428.375-16,6a23.334,23.334,0,0,0-6,11A73.246,73.246,0,0,0,289,151Z"/>
  <path class="cls-5" d="M259,154c1.274-1.264.712-4.611,1-6,0.725-3.5,3.681-5.661,3-7-1.755-3.451-21.839,1.04-22,6-0.036,1.119,2.022,2.954,6,5C250.564,153.833,256.649,156.332,259,154Z"/>
  <path class="cls-5" d="M240,155a21.255,21.255,0,0,0-8-7c-2.838-1.406-10.4-4.349-16.667-.5A15.079,15.079,0,0,0,209,156Z"/>
  <path class="cls-5" d="M182,159c-1.11-1.847,4.044-7.657,10-11,8.572-4.811,17.873-3.885,18-3,0.088,0.614-4.391.877-6,4-1.308,2.54.391,4.915-1,7-1.651,2.473-5.717,1.691-11,2C188.719,158.192,182.73,160.213,182,159Z"/>
  <path class="cls-5" d="M133,167c-0.415-.666,4.609-4.423,7-7,2.85-3.071,4.878-5.95,9-7,1.228-.313,5.51-1.183,7,1,1.337,1.959-.477,5.163-1,6a10.29,10.29,0,0,1-5,4c-3.293,1.352-5.462.616-9,1C137.069,165.427,133.4,167.636,133,167Z"/>
  <path class="cls-5" d="M161,162c-0.4-.835,1.41-2.2,2-4,0.7-2.136-.225-4.314,1-6,1.476-2.032,4.693-1.986,6-2,6.081-.067,13.74-2.885,14-2,0.195,0.663-4.07,1.71-7,5-2.038,2.289-2.353,4.813-5,7C167.934,163.36,161.727,163.536,161,162Z"/>
  <path class="cls-6" d="M659,64a71.464,71.464,0,0,0-10-5c-3.763-1.589-7.589-2.671-11-4-6.438-2.508-10.915-5.728-17-9a152.412,152.412,0,0,0-19-8c-5.466-1.953-10.5-3.154-16-5-9.4-3.154-15.446-7.333-25-10-16.9-4.718-33.239-1.036-45-2-13.314-1.091-21.742-5.367-35-7-12.81-1.578-27.351-1.643-44,0a253.805,253.805,0,0,0-30,5c-15.135,3.377-28.565,7.682-44,13-17.6,6.063-37.755,12.655-50,18-16.752,7.313-31.98,15.2-44,23-13.581,8.814-32.52,24.619-37,28-11.438,8.632-24.042,17.649-33,23a284.869,284.869,0,0,1-43,21,139.244,139.244,0,0,1,38-7c8.323-.337,15.673.2,24,0q9.33-.227,18-1c25.12-2.266,47.085-6.678,60-13,3.414-1.671,8.611-4.293,15-5,9.409-1.042,15.4,3.293,25,1,6.742-1.61,12.028-6.908,16-9,6.966-3.67,13.584-4.52,20-7a160.176,160.176,0,0,0,18-9c10.713-6.047,18.029-12.434,29-18,7-3.55,21.445-8.769,34-13,12.2-4.113,19.727-6.242,25-13,2.176-2.789,4.68-7.153,10-9,2.952-1.025,5.754-.614,8-1,4.7-.808,6.886-2.961,11-5,2.863-1.419,11.246-3.124,19.917-3.167C535.188,32.793,540.729,34.879,549,35c5.46,0.08,9.54-.962,15-1,7.077-.049,18.383,2.54,30,6,7.58,2.258,16.477,5.074,21,7,3.62,1.541,10.122,5.043,16,7,5.754,1.916,11.087,2.771,17,5A103.4,103.4,0,0,1,659,64Z"/>
  <path class="cls-5" d="M164,135c1.588-8.806,7.692-14.586,14-15a13.528,13.528,0,0,1,9,3A30.4,30.4,0,0,1,164,135Z"/>
  <path class="cls-5" d="M194,119c-1.736.024-4.425-.46-5-2-0.85-2.276,3.358-6.079,7-8,5.831-3.076,13.371-2.953,14-1,0.389,1.207-6.108,5.3-8,7C200.372,116.464,197.751,118.949,194,119Z"/>
  <path class="cls-5" d="M209,102a34.7,34.7,0,0,1,14-11c6.538-2.739,13.63-3.192,14-2,0.329,1.059-7.553,4.716-12,8a66.986,66.986,0,0,0-9,8Z"/>
  <path class="cls-5" d="M236,84c0.625,1.476,5.473,1.007,9,0,6.193-1.768,9.577-5.632,13-9,4.05-3.986,10.48-8.127,10-9-0.712-1.3-9.617,2.044-17,6C244.25,75.617,235.044,81.743,236,84Z"/>
  <path class="cls-5" d="M276,61c5.648-.538,9.275-3.815,12-6,6.511-5.22,14.394-8.047,14-9-0.492-1.191-9.924,1.437-17,4a111.434,111.434,0,0,0-19,9A18.658,18.658,0,0,0,276,61Z"/>
  <path class="cls-5" d="M290,43a26.3,26.3,0,0,1,12-2c2.533,0.209,4.372.946,7,1,5.987,0.124,10.437-2.546,13-4,4.748-2.694,15.353-6.773,15-8-0.321-1.116-5.481-.616-10,0C314.577,31.695,302.23,36.166,290,43Z"/>
  <path class="cls-5" d="M337,24c0.078,0.405,2.6-.218,5,1,1.878,0.954,2.261,2.258,4,3,3.383,1.443,7.427-1.088,9-2,8.073-4.679,19.17-4.572,19-6-0.16-1.346-8.916-1.545-16-1C346.051,19.919,336.842,23.179,337,24Z"/>
  <path class="cls-5" d="M377,14c-0.151,1.65,4.174,3.777,8,4,1.4,0.082,5.254-.763,9-3,3.359-2.006,5.193-3.318,5-4C398.272,8.428,377.324,10.465,377,14Z"/>
  <path class="cls-5" d="M407,12c-0.536-.759.315-1.912,0-3-0.946-3.27-8.982-3.18-9-4-0.017-.774,9.431-0.763,16-2,2.585-.487,7.908-1.643,13,1,1.072,0.557,4.319,2.441,4,4-0.432,2.107-9.816,1.21-16,3C412.048,11.855,407.965,13.367,407,12Z"/>
  <path class="cls-5" d="M436,3a10.824,10.824,0,0,0,4,4c4.528,2.51,9.908.642,12,0,12.113-3.718,26.713.884,27-1,0.211-1.389-6.993-3.854-13-5a63.976,63.976,0,0,0-20,0A89.381,89.381,0,0,0,436,3Z"/>
  <path class="cls-5" d="M486,8c-0.2-1.49,2-3.2,4-4,4.845-1.936,11.409,2.482,15,3,5.623,0.811,8.947-.82,13,2,0.819,0.57,3.454,2.578,3,4-0.648,2.031-8.977,1.214-24-1C491.888,11.247,486.3,10.238,486,8Z"/>
  <path class="cls-5" d="M527,13a4.136,4.136,0,0,1,0-4c1.4-2.545,6.591-3.318,16-2a40.894,40.894,0,0,1,13,4c2.677,1.349,7.375,3.9,7,5-0.469,1.379-10.277-2.3-20-2C535.232,14.239,528.891,16.023,527,13Z"/>
  <path class="cls-5" d="M571,18c-1.36-2.807-2.27-4.685-2-5,1.228-1.435,16.309,9.549,25,16-5.972-2.212-13.519-5.071-17-6a8.668,8.668,0,0,1-5-3A10.48,10.48,0,0,1,571,18Z"/>
  <path class="cls-5" d="M600,30a16.339,16.339,0,0,1-4-9c8.9,5.487,26.757,16.612,26,18-0.336.617-5.813-2.4-12-4C606.967,34.213,603.145,33.412,600,30Z"/>
  <path class="cls-5" d="M623,33a47.247,47.247,0,0,0,7,5c4.415,2.572,7.585,3.459,11,7a23.423,23.423,0,0,1,5,8l-17-8Z"/>
  <path class="cls-7" d="M568,240c-3.66-8.136-13.813-13.066-13-19,0.729-5.322,9.712-7.441,14-13,5.309-6.883,2.1-11.482,7-18,9.144-12.175,31.245-10.446,47-7,9.259,2.025,14.061,4.954,15,8,1.839,5.966-6.542,11.464-16,23-7.637,9.315-9.8,17.175-18,26-7.406,7.972-14.107,9.58-21,18-1.839,2.247-5.395,6.831-8,6-2.205-.7-2.6-4.93-3-8C571.3,250.645,570.051,244.558,568,240Z"/>
  <path class="cls-7" d="M618,233c-1.409-2.143,11.375-14.543,14-18,7.508-9.886,10.012-16.917,19-21,3.173-1.441,12.291-2.784,22-2,11.082,0.9,17.349,2.519,18,5,0.992,3.781-16.281,14.529-19,17-6.474,5.883-9.46,9.969-17,13-7.176,2.885-16.982,2.519-20,3C631.207,230.6,619.191,234.811,618,233Z"/>
</svg>
