<svg xmlns="http://www.w3.org/2000/svg" width="150" height="150" viewBox="0 0 150 150">
  <defs>
    <style>
      .cls-1 {
        fill: #908cd6;
        stroke: #908cd6;
      }

      .cls-1, .cls-2 {
        stroke-linecap: round;
        stroke-linejoin: round;
        stroke-width: 3px;
        fill-rule: evenodd;
      }

      .cls-2 {
        fill: #b49cdc;
        stroke: #b49cdc;
      }
    </style>
  </defs>
  <path class="cls-1" d="M93.548,122.522c-20.712.141-78.952,0.6-86.946,0-1.529-.115-2.735-0.384-2.866-0.955-0.207-.9,2.274-2.207,3.822-2.866l20.064-13.377L4.692,94.814a2.6,2.6,0,0,1-1.911-2.866,2.523,2.523,0,0,1,1.911-1.911l25.8-5.733L15.2,68.062c-2.472-2.038-3.39-4-2.866-4.777,0.448-.663,2.034-0.581,3.822,0l22.931,3.822L31.444,44.176c-1.217-1.522-.848-3.326,0-3.822a2.524,2.524,0,0,1,2.866.955L55.331,56.6c-0.033,1.28-.033,2.535,0,3.822a79.845,79.845,0,0,0,7.644,31.53c6.658,14.406,16.674,24.319,21.02,26.753A39.985,39.985,0,0,0,93.548,122.522Z"/>
  <path class="cls-2" d="M141.321,122.522H90.682a71.372,71.372,0,0,1-25.8-27.708c-3.106-6.056-7.058-21.609-7.644-38.218A179.911,179.911,0,0,1,58.2,30.8a2.331,2.331,0,0,1,1.911-2.866,2.229,2.229,0,0,1,1.911,1.911L73.484,52.775,86.86,31.755a2.908,2.908,0,0,1,2.866-2.866c1.26,0.17,2.493,1.89,1.911,3.822V53.73a3.168,3.168,0,0,0,1.911,1.911,3.577,3.577,0,0,0,2.866-.955c3.326-2.547,11.456-8.861,17.2-13.376a2.136,2.136,0,1,1,3.821,1.911q-4.3,11.465-8.6,22.931l23.887-3.822a2.676,2.676,0,0,1,3.821.956,2.564,2.564,0,0,1-.955,2.866l-16.243,17.2,24.842,6.688a2.07,2.07,0,1,1,0,3.822l-21.02,9.554,18.154,14.332c2.4,1.006,3.3,2.886,2.866,3.822C143.864,122.258,142.716,122.63,141.321,122.522Z"/>
  <path class="cls-2" d="M53.42,70.928a14.8,14.8,0,0,1-16.243,10.51l-8.6-25.8a1.351,1.351,0,0,1,1.911-1.911Z"/>
  <path class="cls-2" d="M36.222,92.9a41.51,41.51,0,0,1,1.911,7.644,41.733,41.733,0,0,1,0,12.421L9.469,107.235a1.784,1.784,0,0,1-1.911-.955,1.893,1.893,0,0,1,1.911-1.911Z"/>
  <path class="cls-1" d="M62.974,59.463a34.449,34.449,0,0,0,22.931,0L75.395,31.755c-0.2-1.641-.587-2.866-0.956-2.866s-0.753,1.226-.955,2.866Z"/>
  <path class="cls-1" d="M96.415,69.973a12.93,12.93,0,0,0,5.732,9.554,12.762,12.762,0,0,0,8.6,1.911L120.3,56.6c0.665-1.231,1.3-2.589.955-2.866-0.276-.224-1.109.325-1.911,0.955Z"/>
  <path class="cls-1" d="M113.613,92.9a20.333,20.333,0,0,0-1.911,21.02l27.708-6.688a1.784,1.784,0,0,0,1.911-.955,1.893,1.893,0,0,0-1.911-1.911Z"/>
</svg>
