<svg xmlns="http://www.w3.org/2000/svg" width="150.004" height="150.004" viewBox="0 0 182 182">
  <defs>
    <style>
      .cls-1 {
        fill: none;
      }

      .cls-1, .cls-5 {
        stroke: #ec625e;
      }

      .cls-1, .cls-4, .cls-5 {
        stroke-linecap: round;
        stroke-linejoin: round;
        stroke-width: 3px;
      }

      .cls-1, .cls-2, .cls-3, .cls-4, .cls-5, .cls-6 {
        fill-rule: evenodd;
      }

      .cls-2, .cls-4 {
        fill: #f87c68;
      }

      .cls-3, .cls-5 {
        fill: #ec625e;
      }

      .cls-4 {
        stroke: #f87c68;
      }
    </style>
  </defs>
  <g id="Artboard_1" data-name="Artboard 1">
    <path class="cls-1" d="M75,110l-5-4-1-6-4,1-1,9,4,3" transform="translate(-33 -52)"/>
    <path id="Shape_12_copy" data-name="Shape 12 copy" class="cls-1" d="M85,110l-5-4-1-6-4,1-1,9,4,3" transform="translate(-33 -52)"/>
    <path class="cls-1" d="M110,108l-6-7L90,97l9,9q1,4.5,2,9" transform="translate(-33 -52)"/>
    <path class="cls-1" d="M105,93a23.27,23.27,0,0,0,12,0,14.865,14.865,0,0,0,7-4c2.466-3.227,3.383-8.85,0-13a10.49,10.49,0,0,0-12-3" transform="translate(-33 -52)"/>
    <path class="cls-2" d="M75,130c-0.067,2.082-5.7,4.561-10,3-6.061-2.2-7.794-11.828-6-13,1-.652,5.757,3.668,8,5C71.541,127.7,75.049,128.493,75,130Z" transform="translate(-33 -52)"/>
    <path class="cls-3" d="M59,120a77.782,77.782,0,0,0,12,0c5.771-.453,9.253-1.394,10,0,1.014,1.891-3.041,7.392-8,8-1.394.171-4.56-.7-8-3A37.155,37.155,0,0,1,59,120Z" transform="translate(-33 -52)"/>
    <path class="cls-4" d="M61,120c0.3-.326-1.216-2.139-2-4-0.729-1.73-.907-2.951-2-4-2.531-2.428-7.447-2.338-8-1C48.025,113.36,60.03,121.057,61,120Z" transform="translate(-33 -52)"/>
    <path class="cls-5" d="M50,100c-2.481.268-5.215,6.185-3,10,2.422,4.172,9.773,4.123,11,2,0.292-.5.02-2-1-4a19.593,19.593,0,0,0-2-3C52.481,102.18,51.321,99.858,50,100Z" transform="translate(-33 -52)"/>
    <path class="cls-4" d="M56,92c-3.981.626-6.809,3.739-7,7-0.243,4.137,3.755,8.34,9,8l5-6Z" transform="translate(-33 -52)"/>
    <path class="cls-5" d="M65,88c-2.7-.424-6.219-0.189-8,2-3.305,4.063.626,13.483,6,14,2.782,0.268,5.382-1.88,7-4Z" transform="translate(-33 -52)"/>
    <path class="cls-4" d="M78,87c-0.777-.733-1.676-0.82-3-1-3.872-.526-6.539-1.954-8-1-3.72,2.429-3.545,13.141,2,16a8.732,8.732,0,0,0,7,0C78.457,96,80.6,89.456,78,87Z" transform="translate(-33 -52)"/>
    <path class="cls-5" d="M87,90c-1.925-3.427-6.178-5.05-9-4-5.214,1.939-6.263,13.252-2,16,2.838,1.83,8.689.285,11-4A8.323,8.323,0,0,0,87,90Z" transform="translate(-33 -52)"/>
    <path class="cls-4" d="M110,91c-0.066-1.5-3.8-2.242-10-4-6.851-1.942-11.074-3.7-14-2-6,3.48-6.864,15.455-3,18,2.767,1.822,15.906-6.551,17-7C105.855,93.6,110.074,92.667,110,91Z" transform="translate(-33 -52)"/>
    <path id="Shape_10_copy_2" data-name="Shape 10 copy 2" class="cls-1" d="M105.613,92.321a50.827,50.827,0,0,0,10.1,6.245c4.3,1.987,6.908,2.363,9.285,1.434a8.058,8.058,0,0,0,5-6c0.648-4.479-3.8-10.2-12-12" transform="translate(-33 -52)"/>
    <ellipse cx="69" cy="34.5" rx="3" ry="2.5"/>
    <g>
      <path id="Shape_12_copy_2" data-name="Shape 12 copy 2" class="cls-1" d="M155.265,151.571l-5.959-2.428-2.667-5.48-3.576,2.091q0.794,4.464,1.588,8.928l4.711,1.75" transform="translate(-33 -52)"/>
      <path id="Shape_12_copy_2-2" data-name="Shape 12 copy 2" class="cls-1" d="M164.915,148.742l-5.96-2.428-2.667-5.48-3.576,2.092q0.794,4.464,1.588,8.927l4.711,1.751" transform="translate(-33 -52)"/>
      <path id="Shape_11_copy" data-name="Shape 11 copy" class="cls-1" d="M188.471,139.75l-7.776-5.027-14.644.118,11.238,6.1,4.483,8.079" transform="translate(-33 -52)"/>
      <path id="Shape_10_copy" data-name="Shape 10 copy" class="cls-1" d="M179.39,126.756a23.483,23.483,0,0,0,11.58-3.394,14.912,14.912,0,0,0,5.619-5.822c1.465-3.8.754-9.457-3.688-12.486a10.589,10.589,0,0,0-12.43.512" transform="translate(-33 -52)"/>
      <path id="Shape_9_copy" data-name="Shape 9 copy" class="cls-2" d="M160.939,170.781c0.526,2.019-4.206,5.993-8.8,5.71-6.472-.4-10.877-9.156-9.478-10.79,0.779-.908,6.6,1.9,9.138,2.54C156.948,169.547,160.559,169.32,160.939,170.781Z" transform="translate(-33 -52)"/>
      <path id="Shape_8_copy" data-name="Shape 8 copy" class="cls-3" d="M142.663,165.7a78.524,78.524,0,0,0,11.58-3.394c5.44-2.067,8.532-3.956,9.649-2.828,1.514,1.529-.837,7.96-5.45,9.947-1.3.558-4.6,0.614-8.571-.619A37.431,37.431,0,0,1,142.663,165.7Z" transform="translate(-33 -52)"/>
      <path id="Shape_7_copy" data-name="Shape 7 copy" class="cls-4" d="M144.593,165.136c0.2-.4-1.78-1.711-3.065-3.277-1.194-1.455-1.712-2.578-3.064-3.276-3.131-1.617-7.85-.139-8,1.3C130.189,162.428,143.957,166.425,144.593,165.136Z" transform="translate(-33 -52)"/>
      <path id="Shape_6_copy" data-name="Shape 6 copy" class="cls-5" d="M128.305,149.037c-2.318.958-3.278,7.415-.058,10.453,3.521,3.323,10.6,1.2,11.182-1.19,0.138-.568-0.549-1.926-2.1-3.559a19.655,19.655,0,0,0-2.781-2.316C131.317,150.429,129.539,148.526,128.305,149.037Z" transform="translate(-33 -52)"/>
      <path id="Shape_5_copy" data-name="Shape 5 copy" class="cls-4" d="M131.825,139.655c-3.664,1.728-5.509,5.517-4.769,8.7,0.94,4.043,5.99,6.949,10.954,5.139l3.123-7.178Z" transform="translate(-33 -52)"/>
      <path id="Shape_4_copy" data-name="Shape 4 copy" class="cls-5" d="M139.374,133.268c-2.727.357-6.054,1.578-7.152,4.184-2.037,4.837,4.429,12.773,9.762,11.75,2.76-.53,4.66-3.328,5.62-5.822Z" transform="translate(-33 -52)"/>
      <path id="Shape_3_copy" data-name="Shape 3 copy" class="cls-4" d="M151.635,128.63c-0.958-.484-1.85-0.314-3.179-0.112-3.885.591-6.864-.027-8,1.3-2.9,3.385.308,13.624,6.469,14.8a8.815,8.815,0,0,0,6.755-1.98C154.629,137.145,154.844,130.253,151.635,128.63Z" transform="translate(-33 -52)"/>
      <path id="Shape_2_copy" data-name="Shape 2 copy" class="cls-5" d="M161.17,128.966c-2.829-2.747-7.393-3.1-9.819-1.3-4.481,3.337-2.283,14.5,2.61,15.934,3.257,0.954,8.464-2.184,9.479-6.954A8.306,8.306,0,0,0,161.17,128.966Z" transform="translate(-33 -52)"/>
      <path id="Shape_1_copy" data-name="Shape 1 copy" class="cls-4" d="M183.648,123.421c-0.491-1.425-4.3-1.079-10.784-1.013-7.162.072-11.736-.42-14.077,2.038-4.8,5.039-2.239,16.787,2.212,18.138,3.187,0.968,13.489-10.791,14.418-11.532C180.386,127.09,184.192,125,183.648,123.421Z" transform="translate(-33 -52)"/>
      <path id="Ellipse_1_copy" data-name="Ellipse 1 copy" class="cls-6" d="M173.942,118.96a2.548,2.548,0,1,1-2.185,3.25A2.8,2.8,0,0,1,173.942,118.96Z" transform="translate(-33 -52)"/>
      <path id="Shape_10_copy_3" data-name="Shape 10 copy 3" class="cls-1" d="M181.685,126.568a50.831,50.831,0,0,0,11.568,2.686c4.711,0.507,7.3.03,9.257-1.611a8.058,8.058,0,0,0,2.818-7.284c-0.819-4.451-6.858-8.45-15.207-7.532" transform="translate(-33 -52)"/>
    </g>
    <g id="Group_1_copy" data-name="Group 1 copy">
      <path id="Shape_12_copy_2-3" data-name="Shape 12 copy 2" class="cls-1" d="M74.651,185.531l-0.676-6.368,3.559-4.932-3.525-2.139-7.1,5.623,0.683,4.953" transform="translate(-33 -52)"/>
      <path id="Shape_12_copy_2-4" data-name="Shape 12 copy 2" class="cls-1" d="M81.688,192.636l-0.676-6.368,3.559-4.932L81.046,179.2l-7.1,5.623,0.683,4.953" transform="translate(-33 -52)"/>
      <path id="Shape_11_copy-2" data-name="Shape 11 copy" class="cls-1" d="M100.7,208.991q0.377-4.595.752-9.189l-7.01-12.761-0.061,12.727-4.987,7.754" transform="translate(-33 -52)"/>
      <path id="Shape_10_copy-2" data-name="Shape 10 copy" class="cls-1" d="M107.84,194.884a23.272,23.272,0,0,0,8.445,8.526,14.867,14.867,0,0,0,7.767,2.159c4.029-.519,8.669-3.824,9.237-9.148a10.49,10.49,0,0,0-6.313-10.637" transform="translate(-33 -52)"/>
      <path id="Shape_9_copy-2" data-name="Shape 9 copy" class="cls-2" d="M60.441,199.6c-1.527,1.418-7.251-.84-9.168-4.994-2.7-5.854,2.919-13.861,5.015-13.411,1.166,0.251,1.445,6.672,2.077,9.2C59.644,195.525,61.546,198.579,60.441,199.6Z" transform="translate(-33 -52)"/>
      <path id="Shape_8_copy-2" data-name="Shape 8 copy" class="cls-3" d="M56.287,181.2a77.792,77.792,0,0,0,8.444,8.526c4.383,3.782,7.5,5.594,7.037,7.106-0.63,2.05-7.392,3.041-11.314-.055-1.1-.87-2.709-3.735-3.5-7.8A37.175,37.175,0,0,1,56.287,181.2Z" transform="translate(-33 -52)"/>
      <path id="Shape_7_copy-2" data-name="Shape 7 copy" class="cls-4" d="M57.695,182.62c0.442-.016.664-2.369,1.435-4.236,0.716-1.735,1.459-2.721,1.435-4.235-0.055-3.507-3.58-6.937-4.919-6.388C53.282,168.729,56.261,182.674,57.695,182.62Z" transform="translate(-33 -52)"/>
      <path id="Shape_6_copy-2" data-name="Shape 6 copy" class="cls-5" d="M64.164,160.731c-1.936-1.574-8.064.647-9.216,4.905-1.26,4.657,3.947,9.845,6.32,9.223,0.564-.148,1.434-1.393,2.138-3.525a19.545,19.545,0,0,0,.724-3.532C64.361,164.028,65.195,161.569,64.164,160.731Z" transform="translate(-33 -52)"/>
      <path id="Shape_5_copy-2" data-name="Shape 5 copy" class="cls-4" d="M74.071,159.365c-3.246-2.389-7.447-2.207-9.9-.048-3.111,2.739-3.283,8.537.649,12.024l7.781-.67Z" transform="translate(-33 -52)"/>
      <path id="Shape_4_copy-2" data-name="Shape 4 copy" class="cls-5" d="M83.246,162.944c-1.6-2.217-4.242-4.551-7.05-4.276-5.213.51-9.14,9.932-5.725,14.114,1.768,2.165,5.123,2.5,7.768,2.159Z" transform="translate(-33 -52)"/>
      <path id="Shape_3_copy-2" data-name="Shape 3 copy" class="cls-4" d="M93.1,171.478c-0.026-1.069-.6-1.768-1.4-2.836-2.351-3.121-3.213-6.021-4.919-6.388-4.344-.934-11.831,6.729-9.961,12.68a8.73,8.73,0,0,0,4.926,4.974C87.031,178.135,93.191,175.055,93.1,171.478Z" transform="translate(-33 -52)"/>
      <path id="Shape_2_copy-2" data-name="Shape 2 copy" class="cls-5" d="M97.306,179.983c1.08-3.779-.759-7.942-3.491-9.209-5.047-2.34-13.823,4.875-12.776,9.838,0.7,3.3,5.911,6.374,10.583,5A8.323,8.323,0,0,0,97.306,179.983Z" transform="translate(-33 -52)"/>
      <path id="Shape_1_copy-2" data-name="Shape 1 copy" class="cls-4" d="M112.78,197.029c1.021-1.1-1.079-4.275-4.2-9.92-3.441-6.234-5.165-10.471-8.43-11.355-6.692-1.811-15.812,6-14.9,10.535,0.652,3.248,15.848,6.691,16.936,7.153C108.016,195.913,111.647,198.254,112.78,197.029Z" transform="translate(-33 -52)"/>
      <path id="Ellipse_1_copy-2" data-name="Ellipse 1 copy" class="cls-6" d="M112.124,186.419a2.542,2.542,0,1,1-3.887-.373A2.785,2.785,0,0,1,112.124,186.419Z" transform="translate(-33 -52)"/>
      <path id="Shape_10_copy_4" data-name="Shape 10 copy 4" class="cls-1" d="M109.929,195.774a50.815,50.815,0,0,0,3.083,11.469c1.773,4.393,3.414,6.453,5.783,7.4a8.055,8.055,0,0,0,7.753-.947c3.54-2.82,4.221-10.031-.524-16.962" transform="translate(-33 -52)"/>
    </g>
  </g>
</svg>
