<svg xmlns="http://www.w3.org/2000/svg" width="150" height="150" viewBox="0 0 625 625">
  <defs>
    <style>
      .cls-1 {
        fill: #dd316e;
        stroke: #dd316e;
      }

      .cls-1, .cls-2, .cls-3, .cls-4 {
        stroke-linecap: round;
        stroke-linejoin: round;
        stroke-width: 3px;
        fill-rule: evenodd;
      }

      .cls-2 {
        fill: #ff5e97;
        stroke: #ff5e97;
      }

      .cls-3 {
        fill: #ff86b1;
        stroke: #ff86b1;
      }

      .cls-4 {
        fill: #f7cc6d;
        stroke: #f7cc6d;
      }
    </style>
  </defs>
  <path class="cls-1" d="M471.922,292.955c-0.049-3.22-62.646,1.331-101.505-32.054-29.764-25.572-35.222-62.19-40.068-89.485C313.355,75.693,287.123,19.864,306.309,8.473c9.1-5.405,23.177,1.228,29.383,5.342,11.063,7.336,15,18.025,18.7,26.712,4.907,11.524,10.845,19.316,16.027,30.719,5.6,12.328,12.947,28.355,16.027,36.061,6.739,16.858,19.9,49.78,21.37,56.095,1.331,5.722,4.579,21.084,17.363,32.055,10.614,9.109,22.573,11.156,30.718,12.02,34.83,3.7,101.515-.561,114.861-1.336,16.67-.967,37.573-1,46.746,12.021,7.008,9.947,4.332,23.641,2.671,29.383-3.386,11.707-12.459,20.681-14.691,22.705-16.727,15.163-37.049,41.307-61.438,61.437-20.331,16.782-45.985,41.141-54.759,46.746-2.093,1.337-10.982,7.667-16.027,16.027a48.834,48.834,0,0,0-6.678,21.37,55.531,55.531,0,0,0,1.336,16.027c3.219,13.308,20.843,84.009,26.711,101.5,13.928,41.523,19.5,65.678,8.014,76.129-7.741,7.045-21.757,6.556-30.719,4.006a50.7,50.7,0,0,1-13.356-6.678c-18.877-14.391-113.783-73.853-157.6-101.5-22.373-66.941-23.743-120.751,2.672-156.264C349.826,286.95,471.992,297.475,471.922,292.955Z"/>
  <path class="cls-2" d="M302.3,506.65c-1.776-11.589-3.1-23.04-4.007-34.725q-1.766-22.686-1.335-45.411a99.05,99.05,0,0,1,26.711,8.014c12.947,6,21.365,14.1,30.719,21.369,13.282,10.316,28.885,17.8,46.746,22.7-14.071-29.592-18.323-61.929-9.349-92.155,3.4-11.462,19.473-39.112,42.739-62.773a270.773,270.773,0,0,1,36.061-30.719c-57.322-6.245-95.934-22.679-110.855-52.088-7-13.8-8.819-30.523-17.362-48.082a166.839,166.839,0,0,0-13.356-22.7c-0.386-19.771-.386-39.034,0-58.766,1.06-54.19,4.118-93.944-13.356-101.5-6.9-2.987-15.915-.476-21.37,4.007-9.688,7.963-8.854,22.689-9.349,33.39-0.4,8.69-7.18,30.42-13.356,49.417-8.719,26.818-23.959,49.414-32.054,69.451-1.549,3.835-5.439,13.531-14.692,20.033-12.492,8.78-27.6,7.107-32.054,6.678-0.184-.017-108.548,8.938-113.525,9.35-13.182,1.089-48.048,4.244-66.78,28.047-7.641,9.71-9.033,17.127-8.014,22.705,2.384,13.046,18.186,20.058,24.041,22.7,43.612,19.72,85.068,56.176,98.834,69.451,5.633,5.432,11.235,12.643,13.356,22.7,1.947,9.233-.522,18.723-1.336,21.37-4.855,15.8-8.423,35.755-14.691,54.759-7.351,22.285-7.485,40.054-13.356,62.773-1.8,6.96-7.282,27.946,1.336,49.417,7.2,17.941,16.4,26.364,26.711,28.047,9.54,1.558,19.129-2.608,26.712-9.349,16.712-11.274,33.393-21.81,50.753-32.054,21.057-12.426,42.193-23.874,64.108-34.725A30.337,30.337,0,0,1,302.3,506.65Z"/>
  <path class="cls-3" d="M329.014,160.731a49.949,49.949,0,0,0,9.349,25.376c0.3,8.139.74,16.019,1.336,24.041,4.6,61.942,19.887,102.85,1.335,134.9-9.639,16.649-31.268,27.36-40.068,54.759a85.6,85.6,0,0,0-4.006,28.048,134.211,134.211,0,0,0-56.095,4.007,119.386,119.386,0,0,0-32.055,14.691,113.049,113.049,0,0,0-10.684,8.014c3.272-14.273,7.128-31.151,10.684-46.746,7.368-32.3,12.185-56.084,1.336-81.471-5.891-13.785-16.209-24.259-30.719-38.732-8.189-8.169-16.914-16.9-25.376-25.377,9.922,0.263,19.57.264,29.383,0,34.067-.914,66-7.1,77.465-13.356,13.1-7.142,37.546-29.454,56.094-62.773A215.68,215.68,0,0,0,329.014,160.731Z"/>
  <g>
    <path class="cls-4" d="M158.058,481.274c-8.23,1.09-13.735,11.789-10.685,20.034,2.246,6.07,9.205,11.006,16.027,9.349,7.744-1.882,11.537-11.344,9.349-18.7C170.878,485.669,164.49,480.422,158.058,481.274Z"/>
    <path class="cls-4" d="M174.085,466.582c-2.243-5.246-.3-12.58,5.342-14.691,5.326-1.993,11.381,1.624,13.356,6.678,2.244,5.742-.832,13.2-6.678,14.691C181.163,474.516,176,471.052,174.085,466.582Z"/>
    <path class="cls-4" d="M207.475,442.541c-4.218,1.762-9.151-1.218-10.685-5.342-1.436-3.86,0-9.011,4.007-10.685,4.218-1.761,9.151,1.219,10.685,5.343C212.917,435.716,211.483,440.867,207.475,442.541Z"/>
    <path class="cls-4" d="M227.509,415.83c-3.072,2.058-7.554.56-9.349-2.672-1.81-3.257-.654-7.848,2.671-9.349,2.9-1.308,6.359.222,8.013,2.671C230.766,409.326,230.519,413.813,227.509,415.83Z"/>
    <path class="cls-4" d="M73.915,242.2c-1.472-5.806,5.886-13.018,13.356-14.691,7.764-1.739,17.729,2.041,18.7,8.013,0.92,5.67-6.524,11.739-13.356,13.356C85.311,250.609,75.394,248.033,73.915,242.2Z"/>
    <path class="cls-4" d="M120.661,251.552c-1.479-4.986,3.708-10.866,9.349-12.021,4.463-.913,10.53.859,12.021,5.343,1.614,4.855-2.947,10.454-8.014,12.02C128.853,258.49,122.052,256.241,120.661,251.552Z"/>
    <path class="cls-4" d="M156.722,259.565c-0.949-4.089,3.419-8.61,8.014-9.349,4.892-.786,10.428,2.652,10.685,6.678,0.273,4.3-5.546,8.3-10.685,8.013C161.657,264.738,157.51,262.959,156.722,259.565Z"/>
    <path class="cls-4" d="M188.776,267.579c0.541-2.862,4.784-4.386,8.014-4.007,3.033,0.355,6.661,2.56,6.678,5.342,0.018,3.036-4.268,5.737-8.014,5.343C191.829,273.875,188.217,270.543,188.776,267.579Z"/>
    <path class="cls-4" d="M318.329,195.457a6.958,6.958,0,0,1,8.014-6.678A6.739,6.739,0,1,1,318.329,195.457Z"/>
    <path class="cls-4" d="M329.014,172.752c-4.553.7-8.986-3.3-9.349-8.014-0.359-4.661,3.3-9.352,8.013-9.349,4.8,0,8.25,4.875,8.014,9.349C335.5,168.339,332.9,172.15,329.014,172.752Z"/>
    <path class="cls-4" d="M330.349,138.026c-5.789,1.82-12.01-2.319-13.356-8.013-1.473-6.238,3.24-12.914,9.35-13.356,4.9-.355,9.387,3.39,10.684,8.013C338.5,129.9,335.881,136.287,330.349,138.026Z"/>
    <path class="cls-4" d="M327.678,97.958c-6.387,1.183-12.735-4.659-14.691-10.685-2.629-8.1,1.927-18.819,9.349-20.034,6.391-1.046,13.031,5.268,14.691,12.02C338.882,86.8,334.946,96.612,327.678,97.958Z"/>
    <path class="cls-4" d="M552.058,242.2c5.532,4.623,4.257,14.372,0,20.034-4.584,6.1-14.269,9.646-20.034,5.343-5.925-4.422-5.175-15.242,0-21.37C536.775,240.582,546.441,237.509,552.058,242.2Z"/>
    <path class="cls-4" d="M506.648,264.907c3.893,3.6,2.977,11.043-1.336,14.692-3.6,3.042-9.914,3.752-13.356,0-3.131-3.413-2.313-8.8,0-12.02C495.238,263.015,502.67,261.231,506.648,264.907Z"/>
    <path class="cls-4" d="M470.587,279.6c2.875,3.2,2.119,8.945-1.336,12.02-3.288,2.927-8.954,3.379-12.02,0-2.753-3.034-2.2-7.814,0-10.684C460.341,276.868,467.283,275.917,470.587,279.6Z"/>
    <path class="cls-4" d="M438.532,288.948c2.8,2.8,1.842,8.159-1.335,10.685-2.457,1.953-6.739,2.61-9.349,0s-1.953-6.893,0-9.349C430.373,287.107,435.729,286.145,438.532,288.948Z"/>
    <path class="cls-4" d="M449.217,521.341c5.242,4.669,7.977,13.63,4.007,18.7-4.409,5.629-15.539,4.484-21.369-1.336-4.762-4.752-7.081-13.708-2.672-18.7C433.851,514.723,443.764,516.485,449.217,521.341Z"/>
    <path class="cls-4" d="M419.834,486.616c4.475,4.061,5.529,12.158,1.336,16.027-4.305,3.972-12.11,1.611-16.027-2.671-2.687-2.936-4.825-8.173-2.672-12.02C405.321,482.862,414.7,481.954,419.834,486.616Z"/>
    <path class="cls-4" d="M395.793,457.233c2.494,3.031,2.9,8.381,0,10.685-3.016,2.4-8.166.351-10.684-2.671-2.1-2.527-3.322-6.871-1.336-9.35C386.21,452.856,392.742,453.523,395.793,457.233Z"/>
    <path class="cls-4" d="M374.424,427.85c2.354,2.509,2.679,6.988,0,9.349a6.443,6.443,0,0,1-8.014,0c-3.249-2.6-3.227-8.527,0-10.685C368.76,424.943,372.374,425.665,374.424,427.85Z"/>
  </g>
</svg>
