<?xml version="1.0" encoding="UTF-8"?><svg id="a" xmlns="http://www.w3.org/2000/svg" viewBox="0 0 1992.38 1496.02"><defs><style>.b{fill:#403226;}.c{fill:#fff5ec;}.d{fill:#00c6c6;fill-rule:evenodd;}.e{fill:#141414;}.f{fill:#40e0d0;}</style></defs><path class="e" d="M66.85,930.72c12.75,0,23.09,10.34,23.09,23.09s-10.34,23.09-23.09,23.09-23.1-10.34-23.1-23.09,10.34-23.09,23.1-23.09m-52.08-1.44c8.15,0,14.77,6.61,14.77,14.76s-6.61,14.77-14.77,14.77-14.77-6.62-14.77-14.77,6.62-14.76,14.77-14.76Zm123.1,6.92c17.38,.25,32.7-2.69,46.6-8.57,20.15-8.53,38.24-23.6,56.12-44.29,32.93-38.1,61.05-86.55,91.51-139.03,67.45-116.2,145.97-251.5,317.13-352.63-38.21-2.44-75.63-3.5-109.47-4.46-63.59-1.77-76.65-34.75-18.11-57.92,343.21-135.94,557.05-108.37,701.92-29.67,45.27,9.67,91.38,23.18,138.17,40.84,35.76,13.5,72.07,29.49,108.88,48.1-4.67-97.16,13.56-182.67,59.28-248.79,48.02-69.45,125.43-116.69,237.19-132.65,45.1-6.44,82.56-8.83,110.85-5.92,34.48,3.54,57.54,15.33,67.29,37.29,26.4,59.42,48.52,114.84,47.07,170.82-1.5,57.93-27.59,113.8-98.36,170.17-40.86,32.55-79.39,55.79-111.26,75-37.3,22.5-64.44,38.86-69.71,53.49-7.25,20.14-20.69,48-36.52,73.12,7.56,6.93,15.01,15.3,22.25,24.96,37.47,49.95,71.95,138.64,84.95,237.17,13.01,98.74,4.81,208.23-42.98,300.1-17.47,33.6-40.26,64.86-69.2,92.36-34.73,33.01-67.19,28.06-61.45-20.88,13.48-115.05-30.91-199.72-103.57-256.74-48.37,56.22-105.22,105.41-167.89,146.14-113.26,73.59-245.65,119.61-381.32,129.51,3.17,3.85,6.44,7.73,9.82,11.63,63.07,72.87,78.41,136.08,66.51,180.33-6.22,23.14-19.65,41.29-37.78,53.47-17.62,11.83-39.45,17.73-63.09,16.74-50.13-2.08-109.57-35.55-151.79-110.14-24.26-42.89-43.42-91.56-59.63-132.79-6.57-16.69-12.64-32.14-18.17-45.01-62.58-18.11-113.14-43.25-156.61-64.88-79.22-39.41-131.74-65.53-184.15,1.42-89.36,114.22-163.48,158.52-216.29,161.46-40.65,2.25-69.65-17.59-85.44-49.53-14.22-28.76-16.74-67.57-6.16-107.55,19.41-73.33,83.16-152.97,199.72-180.68,33.95-8.07,70.3-11.09,107.4-9.44,8.46-1.14,16.75-2.37,24.88-3.7,213.67-34.8,318.68-133.67,421.66-230.66,43.6-41.06,86.87-81.81,137.24-117.69,19.44-13.84,11.51-73.09,4.43-92.47-21.47-58.65-86.57-89.08-163.8-105.46-18.89-4-38.51-7.2-58.44-9.78-201.38,97.49-286.17,243.55-357.88,367.09-31.48,54.25-60.56,104.33-96.27,145.66-22.07,25.53-45.21,44.47-72.11,55.86-19.32,8.18-40.17,12.3-63.45,12-45.38-.58-38.1-43.96,0-43.41Z"/><path class="c" d="M1346.44,381.15l-16.17-5.95c49.85,44.23,89.21,92.46,123.5,134.5,55.89,68.51,96.45,118.24,144.05,95.55,10.48-4.99,23.08-19.43,35.16-36.99,17.05-24.8,31.84-54.52,39.17-74.89,10.58-29.37,43.22-49.06,88.08-76.11,30.88-18.62,68.21-41.13,106.67-71.77,59.1-47.08,80.85-91.85,82.02-137.17,1.22-47.26-19.1-97.73-43.32-152.28-2.66-6-13.78-9.72-32.08-11.6-24.48-2.52-58.48-.23-100.31,5.75-98.77,14.11-166.44,54.77-207.58,114.27-41.9,60.61-57.31,141.61-50.85,234.8,3.25,47.06-24.95,47.78-60.25,29.82-36.45-18.57-72.51-34.5-108.08-47.93"/><path class="d" d="M317.57,959.06c14.48-.86,29.2-.95,44.02-.29,230.55-30.97,339.64-133.68,446.55-234.36,43.6-41.06,86.87-81.81,137.24-117.69,11.62-8.27,13.46-32.77,11.55-55.27-10.28-4.95-23.37-6.11-28.36,1.73-24.24,38.09-99.8,84.96-113.27,49.3-29.2-77.3-6.09-240.18-116.83-32.19-26.3,49.38-113.42,281.73-147.46,155.79-19.46-72.01-63.67-75.24-74.51-37.41-41.66,145.38-2.16,234.29-149.53,245.24-32.32,2.39-118.77,5.77-9.39,25.15"/><path class="f" d="M1779.99,61.49c-187.87,49.53-247.57,160.1-245.09,321.09,.62,42.02,16.14,43.57,40.26,12.1,45.68-59.59,98.42-114.57,136.36-112.75,162.19,7.78,306.67-254.5,68.46-220.45"/><path class="c" d="M1377.23,485.69c-121.82-140.29-318.24-300.35-775.4-139.88,62.68,2.5,131.21,7.32,193.2,20.45,119.94,25.42,215.35,80.73,205.67,205.05,90.24-51.34,205.47-86.13,376.53-85.62"/><path class="d" d="M795.39,345.71c99.03,12.59,199.93,42.41,222.55,145.19,16.3,74.09,116.6,23.39,199.9,8.57-130.08-134.88-243.39-202.95-418.83-179.35-33.54,4.51-56.47,18.88-3.62,25.59"/><path class="c" d="M1534.37,923.62c77.25,60.02,126.86,147.88,121.32,266.24,18.67-20.37,34.01-42.78,46.38-66.58,43.26-83.17,50.54-183.47,38.55-274.41-12.02-91.13-43.08-172.06-76.61-216.77l-.04-.05c-3.6,20.26-8.14,40.18-13.54,59.7-23.53,84.95-63.63,163-116.06,231.87"/><path class="b" d="M874.84,1191.81c-68.61-118.83-43.2-212.89,31.07-277.22,46.41-40.2,112.43-67.7,186.16-81.4,72.57-13.48,153.06-13.67,229.75,.52,63.6,11.77,124.65,33.33,176.77,65.23,49.76-64.99,87.79-138.65,109.98-218.77,3.29-11.88,6.23-23.89,8.81-36.04l-.85,.41c-78.33,37.33-128.01-23.56-196.44-107.45l-5.98-7.33c-324.96-10.29-449.08,106.57-576.2,226.28-93.09,87.67-187.76,176.81-357.68,223.19,19.74,5.95,39.18,13.09,58.11,21.4,82.97,36.43,156.19,95.26,198.79,171.54,32.57,8.17,65.47,13.79,98.43,16.97,13.08,1.26,26.18,2.15,39.28,2.66"/><path class="c" d="M755.36,1220.88l6.42,16.28c15.74,40,34.32,87.23,56.91,127.18,33.9,59.9,78.84,86.67,115.72,88.2,14.37,.6,27.26-2.71,37.23-9.42,9.47-6.35,16.54-16.08,19.92-28.64,8.56-31.84-5.14-80.4-57.33-140.69-11.19-12.92-21.33-25.61-30.49-38.05-24.08,.05-48.2-1.05-72.26-3.38-25.48-2.46-50.89-6.27-76.13-11.49"/><path class="b" d="M1470.43,933.38c-46.24-27.74-100.23-46.57-156.43-56.97-71.52-13.24-146.53-13.07-214.09-.53-66.38,12.33-125.17,36.52-165.58,71.53-62.28,53.95-79.33,136.57-8.12,244.5,137.94-4.67,273.69-49.37,388.72-124.1,57.92-37.63,110.55-82.89,155.51-134.43"/><path class="f" d="M1470.43,933.38c-2.3-1.38-4.63-2.75-6.98-4.08-68.38-6-137.22-2.82-200.86,8.99-84.37,15.67-159.09,46.43-210.46,90.93-46.7,40.44-73.38,93.56-68.85,158.49,118.03-13.4,232.52-55.49,331.63-119.89,57.92-37.63,110.55-82.89,155.51-134.43"/><path class="c" d="M670.87,1151.51c-38.34-47.6-91.32-85.35-149.88-111.06-50.59-22.22-105.15-35.38-157.9-38.12l-1.93,.26-.04-.35c-33.56-1.58-66.36,1.08-96.9,8.34-98.38,23.39-151.79,89.1-167.75,149.38-7.89,29.85-6.58,57.71,3.1,77.26,8.09,16.37,23.06,26.54,44.1,25.37,41.78-2.32,104.03-41.95,184.48-144.78,74.33-94.96,139.47-62.55,237.74-13.67,30.92,15.39,65.56,32.61,104.97,47.38"/><path class="f" d="M118.69,1257.55c7.01,3.72,15.36,5.57,24.99,5.03,41.78-2.32,104.03-41.95,184.48-144.78,9.32-11.91,18.5-21.81,27.62-29.94-23,.71-45.4,3.53-66.69,8.6-98.38,23.39-151.8,89.09-167.75,149.37-1.04,3.95-1.93,7.86-2.65,11.72"/></svg>